<svg width="48" height="48" viewBox="0 0 48 48" fill="none" xmlns="http://www.w3.org/2000/svg">
<path d="M16 17H35C35.2652 17 35.5196 17.1054 35.7071 17.2929C35.8946 17.4804 36 17.7348 36 18C36 18.2652 35.8946 18.5196 35.7071 18.7071C35.5196 18.8946 35.2652 19 35 19H16C15.7348 19 15.4804 18.8946 15.2929 18.7071C15.1054 18.5196 15 18.2652 15 18C15 17.7348 15.1054 17.4804 15.2929 17.2929C15.4804 17.1054 15.7348 17 16 17Z" fill="#333333"/>
<path d="M13 23H35C35.2652 23 35.5196 23.1054 35.7071 23.2929C35.8946 23.4804 36 23.7348 36 24C36 24.2652 35.8946 24.5196 35.7071 24.7071C35.5196 24.8946 35.2652 25 35 25H13C12.7348 25 12.4804 24.8946 12.2929 24.7071C12.1054 24.5196 12 24.2652 12 24C12 23.7348 12.1054 23.4804 12.2929 23.2929C12.4804 23.1054 12.7348 23 13 23Z" fill="#333333"/>
<path d="M35 29H19C18.7348 29 18.4804 29.1054 18.2929 29.2929C18.1054 29.4804 18 29.7348 18 30C18 30.2652 18.1054 30.5196 18.2929 30.7071C18.4804 30.8946 18.7348 31 19 31H35C35.2652 31 35.5196 30.8946 35.7071 30.7071C35.8946 30.5196 36 30.2652 36 30C36 29.7348 35.8946 29.4804 35.7071 29.2929C35.5196 29.1054 35.2652 29 35 29Z" fill="#333333"/>
</svg>
