<svg width="130" height="48" viewBox="0 0 130 48" fill="none" xmlns="http://www.w3.org/2000/svg">
<path d="M30.1899 38.2807C30.1899 43.6485 25.8867 48 20.5786 48C15.2704 48 10.9672 43.6485 10.9672 38.2807C10.9672 32.9128 15.2704 28.5613 20.5786 28.5613C25.8867 28.5613 30.1899 32.9128 30.1899 38.2807Z" fill="#636363"/>
<path d="M115.213 38.2807C115.213 43.6485 110.91 48 105.602 48C100.294 48 95.9904 43.6485 95.9904 38.2807C95.9904 32.9128 100.294 28.5613 105.602 28.5613C110.91 28.5613 115.213 32.9128 115.213 38.2807Z" fill="#636363"/>
<path d="M60.1085 0.998227C54.8839 1.8954 50.3493 4.08848 39.21 10.9668C34.3797 13.9574 32.4082 14.5555 22.9447 15.652C8.05951 17.3467 3.72209 18.7423 1.9477 22.331C-0.22101 26.8168 -0.713897 37.0844 1.15908 38.6794C4.01783 40.9722 6.97516 39.5766 8.45382 35.2901C10.2282 30.2061 13.1855 27.0162 17.7201 25.6206C20.9732 24.7234 22.0575 24.8231 26.1978 26.9165C30.2395 29.0099 31.2252 30.0067 32.9011 34.4926L34.8726 39.7759H92.3434L92.9348 36.2869C94.4135 28.6111 102.694 23.4275 109.792 25.8199C114.03 27.2155 117.776 31.6017 118.565 36.1873C119.255 39.6763 119.354 39.7759 123.592 39.7759C128.817 39.7759 130 38.181 130 31.502C130 28.4118 129.507 26.8168 128.521 26.4181C127.634 26.119 127.043 24.6237 127.043 22.63C127.043 16.8482 126.057 15.2533 119.058 9.77056C115.312 6.77999 112.256 3.68974 112.256 2.79257C112.256 1.69603 111.073 0.998227 108.609 0.499798C103.088 -0.397372 66.2203 0.0013704 60.1085 0.998227ZM71.3463 8.57433C70.952 11.7643 70.3605 14.6552 69.9662 14.9542C69.6705 15.353 64.3473 15.8514 58.3341 16.1504C47.8849 16.5492 47.1948 16.4495 47.1948 14.7548C47.1948 13.4589 46.5048 12.8608 45.1247 12.8608C43.3503 12.8608 43.1531 12.6614 44.3361 11.2658C46.1105 9.17245 54.7853 4.68659 59.0241 3.78942C60.8971 3.49037 64.6431 3.09162 67.2061 2.99194L71.9378 2.89225L71.3463 8.57433ZM91.1604 5.08534C91.8505 5.78314 92.7377 8.27528 93.132 10.568L93.822 14.8545H90.4704C88.5974 14.8545 84.0628 15.1536 80.3169 15.5523L73.515 16.1504L74.3036 10.269C74.698 7.07905 75.1909 3.9888 75.4866 3.49037C76.2752 2.19445 89.6818 3.59005 91.1604 5.08534ZM115.312 8.57433C120.635 12.8608 121.424 14.3561 117.481 13.3592C114.523 12.6614 110.58 9.77056 108.609 6.87968C106.243 3.49037 109.89 4.38754 115.312 8.57433ZM99.8353 10.568C101.314 12.6614 101.412 13.2596 100.328 13.9574C98.258 15.2533 95.4978 15.0539 95.4978 13.4589C95.4978 12.7611 95.2021 10.6677 94.9064 8.87339C94.3149 5.88282 94.4135 5.78314 96.0893 6.87968C97.0751 7.57748 98.7509 9.17245 99.8353 10.568Z" fill="#636363"/>
</svg>
