<svg width="17" height="17" viewBox="0 0 17 17" fill="none" xmlns="http://www.w3.org/2000/svg">
<g clip-path="url(#clip0_422_11768)">
<path d="M13.1667 6.5H14.6667C14.932 6.5 15.1863 6.39464 15.3739 6.20711C15.5614 6.01957 15.6667 5.76522 15.6667 5.5V1.5C15.6667 1.23478 15.5614 0.98043 15.3739 0.792893C15.1863 0.605357 14.932 0.5 14.6667 0.5H13.1667C12.9015 0.5 12.6472 0.605357 12.4596 0.792893C12.2721 0.98043 12.1667 1.23478 12.1667 1.5V3H10.1667C10.1667 2.73478 10.0614 2.48043 9.87385 2.29289C9.68632 2.10536 9.43196 2 9.16675 2H8.16675C7.90153 2 7.64718 2.10536 7.45964 2.29289C7.27211 2.48043 7.16675 2.73478 7.16675 3H5.16675V1.5C5.16675 1.23478 5.06139 0.98043 4.87385 0.792893C4.68632 0.605357 4.43196 0.5 4.16675 0.5H2.66675C2.40153 0.5 2.14718 0.605357 1.95964 0.792893C1.7721 0.98043 1.66675 1.23478 1.66675 1.5V5.5C1.66675 5.76522 1.7721 6.01957 1.95964 6.20711C2.14718 6.39464 2.40153 6.5 2.66675 6.5H4.16675C4.43196 6.5 4.68632 6.39464 4.87385 6.20711C5.06139 6.01957 5.16675 5.76522 5.16675 5.5V4H7.18925C7.22873 4.18948 7.32276 4.36327 7.45975 4.5L8.16675 5.207V10.834L7.43025 11.8235C7.26005 12.0076 7.16589 12.2493 7.16675 12.5V13H5.16675V11.5C5.16675 11.2348 5.06139 10.9804 4.87385 10.7929C4.68632 10.6054 4.43196 10.5 4.16675 10.5H2.66675C2.40153 10.5 2.14718 10.6054 1.95964 10.7929C1.7721 10.9804 1.66675 11.2348 1.66675 11.5V15.5C1.66675 15.7652 1.7721 16.0196 1.95964 16.2071C2.14718 16.3946 2.40153 16.5 2.66675 16.5H4.16675C4.43196 16.5 4.68632 16.3946 4.87385 16.2071C5.06139 16.0196 5.16675 15.7652 5.16675 15.5V14H7.16675C7.16675 14.2652 7.27211 14.5196 7.45964 14.7071C7.64718 14.8946 7.90153 15 8.16675 15H9.16675C9.43196 15 9.68632 14.8946 9.87385 14.7071C10.0614 14.5196 10.1667 14.2652 10.1667 14H12.1667V15.5C12.1667 15.7652 12.2721 16.0196 12.4596 16.2071C12.6472 16.3946 12.9015 16.5 13.1667 16.5H14.6667C14.932 16.5 15.1863 16.3946 15.3739 16.2071C15.5614 16.0196 15.6667 15.7652 15.6667 15.5V11.5C15.6667 11.2348 15.5614 10.9804 15.3739 10.7929C15.1863 10.6054 14.932 10.5 14.6667 10.5H13.1667C12.9015 10.5 12.6472 10.6054 12.4596 10.7929C12.2721 10.9804 12.1667 11.2348 12.1667 11.5V13H10.1667V12.5C10.1676 12.2493 10.0735 12.0076 9.90325 11.8235L9.16675 10.834V5.207L9.87375 4.5C10.0107 4.36327 10.1048 4.18948 10.1442 4H12.1667V5.5C12.1667 5.76522 12.2721 6.01957 12.4596 6.20711C12.6472 6.39464 12.9015 6.5 13.1667 6.5ZM4.16675 5.5H2.66675V1.5H4.16675V5.5ZM4.16675 15.5H2.66675V11.5H4.16675V15.5ZM13.1667 11.5H14.6667V15.5H13.1667V11.5ZM8.16675 14V12.5C8.18476 12.4829 8.20147 12.4645 8.21675 12.445L8.66675 11.8375L9.11925 12.445C9.13373 12.4645 9.1496 12.4828 9.16675 12.5V14H8.16675ZM9.16675 3.793L8.66675 4.293L8.16675 3.793V3H9.16675V3.793ZM13.1667 1.5H14.6667V5.5H13.1667V1.5Z" fill="#E2E2E2"/>
</g>
<defs>
<clipPath id="clip0_422_11768">
<rect width="16" height="16" fill="white" transform="translate(0.666748 0.5)"/>
</clipPath>
</defs>
</svg>
