<svg width="16" height="17" viewBox="0 0 16 17" fill="none" xmlns="http://www.w3.org/2000/svg">
<g clip-path="url(#clip0_422_11458)">
<path d="M15.707 7L15 6.293C14.9074 6.19982 14.7972 6.12595 14.6759 6.07565C14.5545 6.02536 14.4244 5.99964 14.293 6H14C13.7348 6 13.4804 6.10536 13.2929 6.29289C13.1054 6.48043 13 6.73478 13 7V7.5H12.5V7C12.5 6.73478 12.3946 6.48043 12.2071 6.29289C12.0196 6.10536 11.7652 6 11.5 6H10.8605L10.5885 5.1835C10.5221 4.98439 10.3947 4.81123 10.2243 4.68855C10.054 4.56588 9.8494 4.49991 9.6395 4.5H8V3.5H10C10.1326 3.5 10.2598 3.44732 10.3536 3.35355C10.4473 3.25979 10.5 3.13261 10.5 3C10.5 2.86739 10.4473 2.74021 10.3536 2.64645C10.2598 2.55268 10.1326 2.5 10 2.5H5C4.86739 2.5 4.74021 2.55268 4.64645 2.64645C4.55268 2.74021 4.5 2.86739 4.5 3C4.5 3.13261 4.55268 3.25979 4.64645 3.35355C4.74021 3.44732 4.86739 3.5 5 3.5H7V4.5H4.5C4.23478 4.5 3.98043 4.60536 3.79289 4.79289C3.60536 4.98043 3.5 5.23478 3.5 5.5V6.5H3C2.73478 6.5 2.48043 6.60536 2.29289 6.79289C2.10536 6.98043 2 7.23478 2 7.5V9H1V7C1 6.86739 0.947322 6.74022 0.853553 6.64645C0.759785 6.55268 0.632608 6.5 0.5 6.5C0.367392 6.5 0.240215 6.55268 0.146447 6.64645C0.0526784 6.74022 0 6.86739 0 7V12C0 12.1326 0.0526784 12.2598 0.146447 12.3536C0.240215 12.4473 0.367392 12.5 0.5 12.5C0.632608 12.5 0.759785 12.4473 0.853553 12.3536C0.947322 12.2598 1 12.1326 1 12V10H2V11.5C2 11.7652 2.10536 12.0196 2.29289 12.2071C2.48043 12.3946 2.73478 12.5 3 12.5H3.75L4.95 14.1C5.04333 14.224 5.16416 14.3247 5.30297 14.3941C5.44178 14.4635 5.5948 14.4997 5.75 14.5H10.6395C10.8496 14.5003 11.0544 14.4344 11.2249 14.3117C11.3955 14.1891 11.523 14.0158 11.5895 13.8165L12.3605 11.5H13V12C13 12.2652 13.1054 12.5196 13.2929 12.7071C13.4804 12.8946 13.7348 13 14 13H14.293C14.4244 13.0004 14.5545 12.9746 14.6759 12.9243C14.7972 12.8741 14.9074 12.8002 15 12.707L15.707 12C15.8002 11.9074 15.8741 11.7972 15.9243 11.6759C15.9746 11.5545 16.0004 11.4244 16 11.293V7.707C16.0004 7.57563 15.9746 7.4455 15.9243 7.32414C15.8741 7.20278 15.8002 7.09261 15.707 7ZM15 11.293L14.293 12H14V11C14 10.8674 13.9473 10.7402 13.8536 10.6464C13.7598 10.5527 13.6326 10.5 13.5 10.5H12C11.895 10.5 11.7927 10.533 11.7075 10.5944C11.6224 10.6558 11.5587 10.7424 11.5255 10.842L10.6395 13.5H5.75L4.4 11.7C4.35343 11.6379 4.29303 11.5875 4.22361 11.5528C4.15418 11.5181 4.07762 11.5 4 11.5H3V7.5H4C4.13261 7.5 4.25978 7.44732 4.35355 7.35355C4.44732 7.25979 4.5 7.13261 4.5 7V5.5H9.6395L10.0255 6.658C10.0587 6.7576 10.1224 6.84424 10.2075 6.90562C10.2927 6.96701 10.395 7.00003 10.5 7H11.5V8C11.5 8.13261 11.5527 8.25979 11.6464 8.35355C11.7402 8.44732 11.8674 8.5 12 8.5H13.5C13.6326 8.5 13.7598 8.44732 13.8536 8.35355C13.9473 8.25979 14 8.13261 14 8V7H14.293L15 7.707V11.293Z" fill="#E2E2E2"/>
<path d="M9 9H7.2385L7.9645 7.186C8.01383 7.06281 8.0122 6.92506 7.95997 6.80307C7.90774 6.68108 7.80919 6.58483 7.686 6.5355C7.56281 6.48617 7.42506 6.4878 7.30307 6.54003C7.18108 6.59226 7.08483 6.69081 7.0355 6.814L6.0355 9.314C6.00508 9.3899 5.99374 9.47211 6.00248 9.55341C6.01121 9.63471 6.03975 9.71263 6.0856 9.78034C6.13144 9.84805 6.1932 9.90348 6.26544 9.94177C6.33769 9.98007 6.41823 10.0001 6.5 10H8.2615L7.5355 11.814C7.48617 11.9372 7.4878 12.0749 7.54003 12.1969C7.59226 12.3189 7.69081 12.4152 7.814 12.4645C7.93719 12.5138 8.07494 12.5122 8.19693 12.46C8.31892 12.4077 8.41517 12.3092 8.4645 12.186L9.4645 9.686C9.49492 9.6101 9.50626 9.52789 9.49752 9.44659C9.48879 9.36529 9.46025 9.28737 9.4144 9.21966C9.36856 9.15195 9.3068 9.09652 9.23456 9.05823C9.16231 9.01993 9.08177 8.99994 9 9Z" fill="#E2E2E2"/>
</g>
<defs>
<clipPath id="clip0_422_11458">
<rect width="16" height="16" fill="white" transform="translate(0 0.5)"/>
</clipPath>
</defs>
</svg>
