<svg width="140" height="38" viewBox="0 0 140 38" fill="none" xmlns="http://www.w3.org/2000/svg">
<path fill-rule="evenodd" clip-rule="evenodd" d="M5.40027 0.0421964C5.20506 0.0450917 5.01012 0.0537845 4.81543 0.0682746C3.26052 0.365677 1.9042 1.06684 1.00048 2.40768C0.465474 3.20144 0.239498 3.96421 0.147847 4.91463C0.0356556 6.07823 0.0609246 7.29246 0.0858069 8.48811C0.0958137 8.96896 0.105758 9.44681 0.106673 9.91714L0.119981 27.701C0.119743 28.114 0.108161 28.5443 0.0963632 28.9827C0.0616906 30.2711 0.0251549 31.6287 0.269241 32.8162C0.606871 34.4588 1.78959 36.0116 3.17988 36.915C3.94988 37.4153 4.88297 37.7168 5.79254 37.8149C6.72707 37.9155 7.69456 37.8994 8.65025 37.8834C9.00506 37.8775 9.35824 37.8716 9.7075 37.8717L24.3788 37.8775C24.7522 37.8779 25.1397 37.8896 25.5334 37.9016C26.6575 37.9356 27.8323 37.9712 28.8741 37.7485C30.4861 37.4038 31.9572 35.8913 33.2161 34.5971C33.4954 34.3098 33.7644 34.0333 34.0221 33.7827C34.2628 33.5485 34.5459 33.2872 34.8485 33.0078C35.9686 31.9739 37.3566 30.6925 37.8581 29.6242C38.0819 29.1478 38.1574 28.6206 38.1647 28.0977C38.1826 26.7813 37.6985 26.0199 36.7983 25.0999C36.6818 24.9809 36.544 24.839 36.3892 24.6796C35.0469 23.2974 32.425 20.5975 31.3251 20.0252C30.8045 19.7544 30.3536 19.6893 29.7712 19.6841C28.1681 19.6702 27.2499 20.4811 26.1158 21.4828L26.1006 21.4962L21.4472 16.9055C21.184 16.6456 20.9104 16.3606 20.6283 16.0669C19.7015 15.1018 18.683 14.0412 17.6412 13.4571C17.0436 13.1221 16.3196 13.0167 15.6431 13.0212C13.7678 13.0338 12.6736 14.0826 11.4353 15.349L10.9721 15.8273L10.9663 8.98533C10.9662 8.60272 10.9773 8.20542 10.9885 7.80123C11.0233 6.54836 11.0599 5.22934 10.7737 4.07688C10.7427 3.95503 10.7074 3.83438 10.6681 3.71494C10.6288 3.5955 10.5855 3.47754 10.5381 3.36106C10.4907 3.24458 10.4394 3.12986 10.3842 3.01689C10.329 2.90392 10.2701 2.79296 10.2073 2.68401C10.1445 2.57508 10.0781 2.46841 10.0081 2.364C9.93801 2.25959 9.86449 2.1577 9.78749 2.05833C9.71048 1.95894 9.63019 1.86231 9.5466 1.76842C9.463 1.67453 9.3763 1.5836 9.2865 1.49563C8.25714 0.475898 6.829 0.031047 5.40027 0.0421964ZM6.50345 3.08497C6.03102 2.8885 5.58198 2.88247 5.07814 2.93043C4.30111 3.18943 3.64762 3.52035 3.26417 4.28346C3.05786 4.694 2.97739 5.15257 2.95658 5.60828C2.92506 6.29836 2.94071 6.99628 2.95634 7.6928C2.96536 8.09508 2.97438 8.4969 2.97428 8.89647L2.95772 25.458C2.95804 25.8098 2.94928 26.2686 2.9394 26.7858C2.90242 28.7228 2.84981 31.4785 3.1997 32.4966C3.23937 32.6096 3.28442 32.7205 3.33484 32.8292C3.38526 32.9377 3.44082 33.0437 3.50153 33.1469C3.56223 33.2502 3.62778 33.3503 3.69818 33.4472C3.76859 33.5441 3.84352 33.6373 3.92297 33.7268C4.00243 33.8164 4.08603 33.9019 4.17377 33.9834C4.26153 34.0649 4.35302 34.142 4.44824 34.2145C4.54345 34.2872 4.64196 34.355 4.74376 34.4181C4.84556 34.481 4.95017 34.5389 5.05759 34.5918C5.60207 34.8553 6.21795 34.944 6.81649 34.9776C7.50629 35.0165 8.20558 35.0078 8.90154 34.9992C9.18735 34.9956 9.47261 34.9921 9.75642 34.9918L22.6909 34.9818C22.9643 34.9817 23.3319 34.9901 23.7513 34.9996C25.2803 35.0344 27.4974 35.0848 28.3458 34.7987C28.7235 34.6713 29.0743 34.4091 29.3782 34.1577C30.1859 33.4892 30.9381 32.7256 31.6839 31.9685C31.9713 31.6767 32.2578 31.3859 32.5462 31.1018C32.8254 30.8267 33.1133 30.5559 33.4017 30.2847C33.9159 29.8012 34.4317 29.3161 34.9031 28.8016C34.9231 28.7731 34.9442 28.744 34.9657 28.7142C35.1276 28.4899 35.3155 28.2297 35.2717 27.9495C35.1401 27.1104 31.1397 23.3557 30.2997 22.7792C30.1341 22.6656 29.9593 22.5581 29.7806 22.4662C29.3729 22.6574 28.9047 23.1001 28.4124 23.5656C27.5399 24.3907 26.5915 25.2874 25.77 24.9824C25.4515 24.864 25.1657 24.659 24.9083 24.441C24.3215 23.9439 23.7769 23.3753 23.2363 22.8109C22.9812 22.5446 22.7271 22.2792 22.4698 22.0228L18.6576 18.2816C18.5095 18.1338 18.3548 17.9716 18.1943 17.8034C17.5626 17.1411 16.8418 16.3855 16.086 16.0465C15.7934 15.9154 15.5272 15.9144 15.2308 16.0396C14.4567 16.3671 13.4503 17.5068 12.4562 18.6326C11.5468 19.6625 10.6476 20.6808 9.94583 21.055C9.58117 21.2496 9.19058 21.3122 8.79744 21.1623C8.56623 21.074 8.2859 20.9101 8.18282 20.6773C7.90098 20.0414 7.9801 12.977 8.01644 9.73252C8.02358 9.09526 8.02907 8.60536 8.02984 8.34048C8.03065 8.0649 8.04125 7.772 8.05214 7.47098C8.08577 6.54098 8.12221 5.53335 7.88169 4.7186C7.66971 4.00057 7.20662 3.37741 6.50345 3.08497Z" fill="#D1F105"/>
<path d="M14.1325 22.2284C14.864 22.1929 16.3261 22.0027 16.961 22.3088C17.0574 22.6491 17.0878 23.0041 17.1035 23.3563C17.1479 24.3487 17.2718 31.0302 17.0545 31.6919C16.9773 31.9268 16.8029 32.0178 16.5947 32.1276C16.09 32.1713 15.5809 32.2222 15.0741 32.2249C14.6791 32.227 14.1865 32.193 13.8952 31.8957C13.4955 31.4877 13.6753 25.0692 13.695 24.0837C13.7074 23.4624 13.6541 22.6886 14.1325 22.2284Z" fill="#E1FB38"/>
<path d="M19.7333 26.3702C20.4969 26.3518 21.8343 26.1622 22.5139 26.4493C22.7979 27.1705 22.8509 31.1037 22.5443 31.7977C22.4473 32.0176 22.2773 32.0522 22.071 32.1331C21.5195 32.1886 20.9476 32.2157 20.3932 32.2072C20.0294 32.2015 19.5693 32.1752 19.3042 31.899C19.07 31.2359 18.9995 27.2772 19.2821 26.6942C19.3941 26.4633 19.5059 26.447 19.7333 26.3702Z" fill="#E1FB38"/>
<path d="M9.59642 27.4353C10.0625 27.4319 10.5327 27.4179 10.9984 27.4332C11.1825 27.4392 11.326 27.4342 11.4542 27.5706C11.6942 28.5481 11.7587 30.9022 11.4984 31.8696C11.2131 32.1984 10.6903 32.1717 10.288 32.2076C9.7977 32.2078 8.61924 32.3178 8.24463 32.0109C8.07054 31.8683 8.05221 31.3708 8.0349 31.1513C7.99781 30.6805 7.94283 27.8251 8.14184 27.6177C8.37188 27.378 9.2621 27.4436 9.59642 27.4353Z" fill="#E1FB38"/>
<path d="M25.0525 29.2346C25.8336 29.2183 26.733 29.0908 27.5008 29.1893C27.787 29.2261 28.0805 29.3357 28.2565 29.5762C28.6036 30.0506 28.5279 31.01 28.4334 31.5601C28.3804 31.8685 28.253 31.9898 28.001 32.1621C27.3045 32.2951 25.8422 32.4383 25.1885 32.1533C24.9396 32.0447 24.7586 31.8437 24.6608 31.5917C24.4933 31.1607 24.4591 29.9255 24.6608 29.4992C24.7521 29.306 24.8629 29.3008 25.0525 29.2346Z" fill="#E1FB38"/>
<path d="M53.338 31.11H46.2617V13.4565H53.3013C56.43 13.4565 58.4833 15.1938 58.4833 17.8607C58.4833 19.7325 57.1022 21.4086 55.3423 21.7022V21.8C57.7377 22.0692 59.351 23.7697 59.351 26.1186C59.351 29.226 57.09 31.11 53.338 31.11ZM48.9993 15.6953V20.9681H52.0669C54.4379 20.9681 55.7456 19.9894 55.7456 18.24C55.7456 16.6006 54.6212 15.6953 52.6414 15.6953H48.9993ZM48.9993 28.8712H52.7758C55.2445 28.8712 56.5522 27.8558 56.5522 25.9473C56.5522 24.0388 55.2079 23.0601 52.6169 23.0601H48.9993V28.8712Z" fill="white"/>
<path d="M66.7694 20.1362C64.924 20.1362 63.6285 21.5431 63.4941 23.4883H69.9226C69.8615 21.5187 68.6149 20.1362 66.7694 20.1362ZM69.9104 27.3297H72.4158C72.0492 29.6786 69.8248 31.3547 66.8794 31.3547C63.103 31.3547 60.8176 28.7978 60.8176 24.7362C60.8176 20.699 63.1397 18.0075 66.7694 18.0075C70.3381 18.0075 72.5625 20.5277 72.5625 24.4303V25.3356H63.4819V25.4947C63.4819 27.7335 64.8262 29.2138 66.9405 29.2138C68.4438 29.2138 69.556 28.4553 69.9104 27.3297Z" fill="white"/>
<path d="M74.6157 31.11V18.24H77.1333V20.3931H77.1944C77.891 18.9251 79.2599 18.0198 81.2397 18.0198C84.0751 18.0198 85.7006 19.8304 85.7006 22.7787V31.11H83.0485V23.2926C83.0485 21.3596 82.1441 20.2953 80.3109 20.2953C78.4532 20.2953 77.2555 21.6165 77.2555 23.6106V31.11H74.6157Z" fill="white"/>
<path d="M99.2909 22.6686H96.7733C96.5044 21.2984 95.4778 20.2096 93.7546 20.2096C91.7136 20.2096 90.3692 21.9101 90.3692 24.675C90.3692 27.501 91.7258 29.1404 93.779 29.1404C95.4045 29.1404 96.4678 28.2473 96.7733 26.7547H99.3154C99.0343 29.4951 96.8466 31.3547 93.7546 31.3547C90.0759 31.3547 87.6805 28.8345 87.6805 24.675C87.6805 20.5889 90.0759 18.0075 93.7301 18.0075C97.0422 18.0075 99.0587 20.1362 99.2909 22.6686Z" fill="white"/>
<path d="M105.683 29.2382C107.528 29.2382 108.97 27.9659 108.97 26.2899V25.2745L105.805 25.4702C104.228 25.5803 103.336 26.2776 103.336 27.3787C103.336 28.5042 104.265 29.2382 105.683 29.2382ZM104.95 31.3302C102.432 31.3302 100.672 29.7643 100.672 27.4521C100.672 25.201 102.395 23.8186 105.451 23.6473L108.97 23.4394V22.4484C108.97 21.0171 108.005 20.1607 106.392 20.1607C104.864 20.1607 103.911 20.8947 103.678 22.0447H101.185C101.332 19.7203 103.312 18.0075 106.489 18.0075C109.606 18.0075 111.598 19.6591 111.598 22.2405V31.11H109.068V28.9935H109.007C108.262 30.4249 106.636 31.3302 104.95 31.3302Z" fill="white"/>
<path d="M114.165 31.11V18.24H116.682V20.4298H116.743C117.171 18.9251 118.32 18.032 119.835 18.032C120.214 18.032 120.544 18.0932 120.74 18.1299V20.5889C120.532 20.5032 120.068 20.4421 119.554 20.4421C117.855 20.4421 116.804 21.5798 116.804 23.4027V31.11H114.165Z" fill="white"/>
<path d="M122.145 21.8857C122.145 19.5857 124.174 18.0075 127.18 18.0075C130.04 18.0075 132.045 19.6102 132.13 21.8979H129.649C129.527 20.7357 128.586 20.0139 127.107 20.0139C125.677 20.0139 124.724 20.7112 124.724 21.7266C124.724 22.5218 125.359 23.0601 126.692 23.3904L128.855 23.892C131.446 24.516 132.424 25.4947 132.424 27.3909C132.424 29.7398 130.236 31.3547 127.083 31.3547C124.04 31.3547 122.023 29.7765 121.815 27.4154H124.431C124.638 28.651 125.592 29.3361 127.205 29.3361C128.794 29.3361 129.771 28.6755 129.771 27.6356C129.771 26.8159 129.283 26.3633 127.938 26.0207L125.641 25.458C123.318 24.8952 122.145 23.6841 122.145 21.8857Z" fill="white"/>
</svg>
