<svg width="39" height="38" viewBox="0 0 39 38" fill="none" xmlns="http://www.w3.org/2000/svg">
<path d="M6.23511 0.0578214C6.0399 0.0607167 5.84495 0.0694095 5.65027 0.0838996C4.09536 0.381302 2.73904 1.08246 1.83532 2.4233C1.30031 3.21706 1.07434 3.97984 0.982686 4.93026C0.870494 6.09385 0.895763 7.30809 0.920646 8.50374C0.930653 8.98459 0.940597 9.46243 0.941512 9.93277L0.95482 27.7167C0.954582 28.1296 0.943 28.5599 0.931202 28.9983C0.896529 30.2867 0.859994 31.6443 1.10408 32.8318C1.44171 34.4744 2.62443 36.0272 4.01472 36.9306C4.78472 37.4309 5.7178 37.7324 6.62738 37.8305C7.5619 37.9312 8.52938 37.915 9.48506 37.899H9.48509H9.48517C9.83995 37.8931 10.1931 37.8872 10.5423 37.8873L25.2136 37.8932C25.587 37.8935 25.9744 37.9053 26.3681 37.9172H26.3683H26.3684C27.4925 37.9512 28.6672 37.9868 29.7089 37.7641C31.321 37.4195 32.7921 35.907 34.0509 34.6127C34.3303 34.3254 34.5992 34.0489 34.8569 33.7983C35.0976 33.5642 35.3807 33.3029 35.6833 33.0235L35.6834 33.0234L35.6834 33.0234C36.8034 31.9895 38.1914 30.7081 38.6929 29.6398C38.9167 29.1634 38.9922 28.6362 38.9995 28.1134C39.0175 26.7969 38.5334 26.0355 37.6331 25.1155C37.5167 24.9965 37.3789 24.8546 37.2241 24.6952L37.224 24.6952C35.8817 23.313 33.2598 20.6131 32.16 20.0409C31.6394 19.7701 31.1884 19.7049 30.606 19.6997C29.0029 19.6858 28.0847 20.4967 26.9506 21.4984L26.9354 21.5118L22.282 16.9211C22.0189 16.6612 21.7453 16.3764 21.4633 16.0827L21.4631 16.0825C20.5363 15.1174 19.5178 14.0568 18.476 13.4727C17.8784 13.1377 17.1545 13.0323 16.478 13.0368C14.6026 13.0494 13.5084 14.0983 12.2701 15.3646L11.8069 15.8429L11.8011 9.00095C11.8011 8.61836 11.8121 8.22107 11.8233 7.8169V7.81686V7.81685C11.8581 6.56398 11.8947 5.24497 11.6086 4.0925C11.5775 3.97065 11.5423 3.85001 11.503 3.73056C11.4637 3.61112 11.4203 3.49316 11.3729 3.37668C11.3256 3.26021 11.2743 3.14548 11.2191 3.03251C11.1639 2.91954 11.1049 2.80858 11.0421 2.69964C10.9794 2.5907 10.9129 2.48403 10.8429 2.37962C10.7729 2.27521 10.6993 2.17332 10.6223 2.07395C10.5453 1.97457 10.465 1.87793 10.3814 1.78404C10.2978 1.69016 10.2111 1.59923 10.1213 1.51126C9.09198 0.491523 7.66384 0.046672 6.23511 0.0578214Z" fill="#E1FB38"/>
<path fill-rule="evenodd" clip-rule="evenodd" d="M6.23511 0.0578214C6.0399 0.0607167 5.84495 0.0694095 5.65027 0.0838996C4.09536 0.381302 2.73904 1.08246 1.83532 2.4233C1.30031 3.21706 1.07434 3.97984 0.982686 4.93026C0.870494 6.09385 0.895763 7.30808 0.920646 8.50373C0.930653 8.98458 0.940597 9.46243 0.941512 9.93277L0.95482 27.7167C0.954582 28.1296 0.943 28.5599 0.931202 28.9983C0.896529 30.2867 0.859994 31.6443 1.10408 32.8318C1.44171 34.4744 2.62443 36.0272 4.01472 36.9306C4.78472 37.4309 5.7178 37.7324 6.62738 37.8305C7.56191 37.9312 8.5294 37.915 9.48509 37.899C9.8399 37.8931 10.1931 37.8872 10.5423 37.8873L25.2136 37.8932C25.587 37.8935 25.9745 37.9053 26.3683 37.9172C27.4924 37.9512 28.6672 37.9868 29.7089 37.7641C31.321 37.4195 32.7921 35.907 34.0509 34.6127C34.3303 34.3254 34.5992 34.0489 34.8569 33.7983C35.0976 33.5642 35.3807 33.3028 35.6834 33.0234C36.8034 31.9895 38.1914 30.7081 38.6929 29.6398C38.9167 29.1634 38.9922 28.6362 38.9995 28.1134C39.0175 26.7969 38.5334 26.0355 37.6331 25.1155C37.5167 24.9965 37.3789 24.8546 37.2241 24.6952C35.8818 23.313 33.2598 20.6131 32.16 20.0409C31.6393 19.7701 31.1884 19.7049 30.606 19.6997C29.0029 19.6858 28.0847 20.4967 26.9506 21.4984L26.9354 21.5118L22.282 16.9211C22.0188 16.6612 21.7452 16.3763 21.4631 16.0825C20.5363 15.1174 19.5178 14.0568 18.476 13.4727C17.8784 13.1377 17.1545 13.0323 16.478 13.0368C14.6026 13.0494 13.5084 14.0983 12.2701 15.3646L11.8069 15.8429L11.8011 9.00095C11.8011 8.61835 11.8121 8.22104 11.8233 7.81686C11.8581 6.56398 11.8947 5.24497 11.6086 4.0925C11.5775 3.97065 11.5423 3.85001 11.503 3.73056C11.4636 3.61112 11.4203 3.49316 11.3729 3.37668C11.3256 3.26021 11.2743 3.14548 11.2191 3.03251C11.1639 2.91954 11.1049 2.80858 11.0421 2.69964C10.9794 2.5907 10.9129 2.48403 10.8429 2.37962C10.7729 2.27521 10.6993 2.17332 10.6223 2.07395C10.5453 1.97457 10.465 1.87793 10.3814 1.78404C10.2978 1.69016 10.2111 1.59923 10.1213 1.51126C9.09197 0.491523 7.66384 0.046672 6.23511 0.0578214ZM7.33829 3.1006C6.86585 2.90413 6.41682 2.89809 5.91297 2.94605C5.13595 3.20506 4.48246 3.53597 4.09901 4.29908C3.8927 4.70963 3.81223 5.1682 3.79141 5.6239C3.75989 6.31398 3.77555 7.0119 3.79118 7.70842C3.8002 8.11071 3.80921 8.51252 3.80912 8.9121L3.79256 25.4736C3.79287 25.8254 3.78412 26.2842 3.77424 26.8014C3.73726 28.7384 3.68465 31.4941 4.03454 32.5122C4.07421 32.6252 4.11925 32.7361 4.16968 32.8448C4.2201 32.9534 4.27566 33.0593 4.33637 33.1626C4.39707 33.2658 4.46262 33.3659 4.53302 33.4628C4.60343 33.5597 4.67836 33.6529 4.75781 33.7424C4.83727 33.832 4.92087 33.9176 5.00861 33.999C5.09637 34.0806 5.18786 34.1576 5.28308 34.2301C5.37829 34.3028 5.4768 34.3706 5.5786 34.4337C5.6804 34.4966 5.78501 34.5545 5.89243 34.6074C6.43691 34.8709 7.05278 34.9596 7.65133 34.9932C8.34113 35.0322 9.04042 35.0235 9.73637 35.0148C10.0222 35.0112 10.3074 35.0077 10.5913 35.0074L23.5258 34.9974C23.7991 34.9973 24.1668 35.0057 24.5862 35.0152C26.1151 35.05 28.3323 35.1004 29.1806 34.8143C29.5583 34.687 29.9092 34.4247 30.2131 34.1733C31.0208 33.5048 31.773 32.7412 32.5187 31.9841C32.8062 31.6923 33.0927 31.4015 33.381 31.1175C33.6602 30.8423 33.9481 30.5716 34.2366 30.3003C34.7507 29.8168 35.2666 29.3318 35.738 28.8172C35.7579 28.7887 35.779 28.7596 35.8005 28.7298C35.9624 28.5056 36.1503 28.2453 36.1065 27.9651C35.9749 27.126 31.9745 23.3713 31.1346 22.7948C30.969 22.6812 30.7942 22.5737 30.6154 22.4819C30.2077 22.6731 29.7396 23.1158 29.2473 23.5812C28.3747 24.4063 27.4264 25.303 26.6048 24.998C26.2863 24.8796 26.0006 24.6746 25.7432 24.4566C25.1564 23.9595 24.6117 23.3909 24.0712 22.8265C23.8161 22.5602 23.5619 22.2948 23.3047 22.0384L19.4924 18.2973C19.3443 18.1494 19.1896 17.9872 19.0291 17.819C18.3974 17.1568 17.6766 16.4011 16.9208 16.0622C16.6282 15.931 16.362 15.93 16.0657 16.0553C15.2915 16.3827 14.2852 17.5224 13.291 18.6482C12.3816 19.6781 11.4824 20.6965 10.7807 21.0706C10.416 21.2652 10.0254 21.3279 9.63228 21.178C9.40107 21.0896 9.12074 20.9257 9.01766 20.6929C8.73582 20.057 8.81494 12.9926 8.85128 9.74815C8.85842 9.11089 8.86391 8.62099 8.86468 8.35611C8.86549 8.08052 8.87609 7.78763 8.88697 7.4866C8.92061 6.5566 8.95705 5.54897 8.71653 4.73422C8.50455 4.01619 8.04146 3.39303 7.33829 3.1006Z" fill="#333333"/>
<path d="M14.9674 22.244C15.6988 22.2085 17.1609 22.0183 17.7958 22.3244C17.8922 22.6647 17.9227 23.0197 17.9383 23.3719C17.9827 24.3643 18.1066 31.0458 17.8893 31.7075C17.8121 31.9424 17.6377 32.0334 17.4296 32.1432C16.9248 32.1869 16.4158 32.2378 15.9089 32.2405C15.5139 32.2426 15.0214 32.2086 14.73 31.9113C14.3303 31.5033 14.5101 25.0849 14.5298 24.0994C14.5422 23.478 14.489 22.7042 14.9674 22.244Z" fill="#333333"/>
<path d="M20.5681 26.3858C21.3317 26.3675 22.6691 26.1779 23.3487 26.465C23.6328 27.1861 23.6858 31.1193 23.3791 31.8134C23.2822 32.0332 23.1122 32.0679 22.9059 32.1487C22.3544 32.2042 21.7825 32.2314 21.2281 32.2228C20.8643 32.2172 20.4042 32.1909 20.1391 31.9146C19.9048 31.2515 19.8343 27.2928 20.1169 26.7099C20.229 26.4789 20.3407 26.4627 20.5681 26.3858Z" fill="#333333"/>
<path d="M10.4313 27.4509C10.8974 27.4475 11.3675 27.4335 11.8332 27.4488C12.0173 27.4548 12.1609 27.4498 12.289 27.5862C12.529 28.5637 12.5935 30.9179 12.3332 31.8852C12.0479 32.214 11.5251 32.1873 11.1229 32.2232C10.6325 32.2234 9.45407 32.3335 9.07946 32.0265C8.90538 31.8839 8.88705 31.3864 8.86974 31.1669C8.83265 30.6961 8.77767 27.8407 8.97668 27.6334C9.20672 27.3937 10.0969 27.4592 10.4313 27.4509Z" fill="#333333"/>
<path d="M25.8873 29.2502C26.6685 29.234 27.5679 29.1064 28.3356 29.2049C28.6218 29.2417 28.9153 29.3513 29.0913 29.5918C29.4384 30.0662 29.3627 31.0256 29.2682 31.5758C29.2152 31.8841 29.0878 32.0054 28.8358 32.1777C28.1394 32.3107 26.677 32.4539 26.0233 32.1689C25.7745 32.0604 25.5934 31.8593 25.4956 31.6073C25.3281 31.1763 25.2939 29.9411 25.4956 29.5148C25.587 29.3216 25.6977 29.3164 25.8873 29.2502Z" fill="#333333"/>
</svg>
