<svg width="100" height="28" viewBox="0 0 100 28" fill="none" xmlns="http://www.w3.org/2000/svg">
<g clip-path="url(#clip0_654_6446)">
<path d="M3.85859 0.529814C3.71912 0.531871 3.57983 0.538048 3.44072 0.548343C2.32974 0.759655 1.36065 1.25785 0.714938 2.21055C0.332673 2.77454 0.171212 3.31651 0.105728 3.99181C0.0255667 4.81857 0.0436214 5.68132 0.0613999 6.53086C0.0685498 6.87252 0.075655 7.21204 0.076309 7.54622L0.0858173 20.1821C0.085647 20.4755 0.0773718 20.7813 0.0689424 21.0928C0.0441687 22.0082 0.018064 22.9728 0.192464 23.8166C0.433701 24.9837 1.27875 26.087 2.27212 26.7289C2.82229 27.0844 3.48898 27.2986 4.13887 27.3683C4.80659 27.4398 5.49785 27.4283 6.18068 27.417H6.18071L6.18109 27.417C6.43447 27.4128 6.68669 27.4086 6.93611 27.4087L17.4188 27.4128C17.6855 27.4131 17.9624 27.4214 18.2437 27.4299H18.2438H18.2438C19.047 27.4541 19.8863 27.4793 20.6307 27.3211C21.7825 27.0763 22.8336 26.0016 23.733 25.082C23.9326 24.8779 24.1248 24.6814 24.3089 24.5033C24.4809 24.337 24.6832 24.1513 24.8994 23.9527C25.6997 23.2181 26.6914 22.3076 27.0497 21.5486C27.2097 21.2101 27.2636 20.8355 27.2688 20.464C27.2816 19.5287 26.9357 18.9876 26.2925 18.334C26.2093 18.2494 26.1109 18.1486 26.0002 18.0353C25.0412 17.0532 23.1678 15.1349 22.3819 14.7283C22.01 14.5359 21.6878 14.4896 21.2717 14.4859C20.1262 14.476 19.4702 15.0522 18.6598 15.7639L18.649 15.7734L15.3241 12.5116C15.1361 12.3269 14.9406 12.1245 14.739 11.9158C14.0768 11.23 13.3491 10.4765 12.6047 10.0614C12.1778 9.82342 11.6605 9.74853 11.1771 9.75175C9.83717 9.76067 9.05537 10.5059 8.17062 11.4057L7.83966 11.7455L7.83553 6.88415C7.83549 6.61229 7.84337 6.33 7.85138 6.04281C7.87623 5.15261 7.90239 4.21542 7.69795 3.39656C7.67573 3.30998 7.65058 3.22426 7.62248 3.13939C7.59439 3.05453 7.56342 2.97071 7.52957 2.88795C7.49572 2.80519 7.45908 2.72368 7.41965 2.64341C7.3802 2.56314 7.33806 2.4843 7.29321 2.40689C7.24836 2.32949 7.20091 2.2537 7.15087 2.17951C7.10081 2.10533 7.04828 2.03293 6.99327 1.96233C6.93825 1.89171 6.88087 1.82305 6.82115 1.75634C6.76142 1.68963 6.69947 1.62503 6.63531 1.56252C5.89983 0.83797 4.87942 0.521892 3.85859 0.529814Z" fill="#E1FB38"/>
<path fill-rule="evenodd" clip-rule="evenodd" d="M3.85859 0.529814C3.71912 0.531871 3.57983 0.538048 3.44072 0.548343C2.32974 0.759655 1.36065 1.25785 0.714938 2.21055C0.332673 2.77454 0.171212 3.31651 0.105728 3.99181C0.0255667 4.81857 0.0436214 5.68132 0.0613999 6.53086C0.0685498 6.87251 0.075655 7.21204 0.076309 7.54622L0.0858173 20.1821C0.085647 20.4755 0.0773717 20.7813 0.0689424 21.0928C0.0441687 22.0082 0.018064 22.9728 0.192464 23.8166C0.433701 24.9837 1.27875 26.087 2.27212 26.7289C2.82229 27.0844 3.48898 27.2986 4.13887 27.3683C4.80659 27.4398 5.49786 27.4283 6.18071 27.417C6.43422 27.4128 6.68656 27.4086 6.93611 27.4087L17.4188 27.4128C17.6855 27.4131 17.9624 27.4214 18.2438 27.4299C19.0469 27.4541 19.8863 27.4793 20.6307 27.3211C21.7825 27.0763 22.8336 26.0016 23.733 25.082C23.9326 24.8779 24.1248 24.6814 24.3089 24.5033C24.4809 24.3369 24.6832 24.1513 24.8994 23.9527C25.6997 23.2181 26.6914 22.3076 27.0497 21.5486C27.2097 21.2101 27.2636 20.8355 27.2688 20.464C27.2816 19.5287 26.9357 18.9876 26.2925 18.334C26.2093 18.2494 26.1109 18.1486 26.0003 18.0353C25.0412 17.0532 23.1678 15.1349 22.3819 14.7283C22.01 14.5359 21.6878 14.4896 21.2717 14.4859C20.1262 14.476 19.4702 15.0522 18.6598 15.7639L18.649 15.7734L15.3241 12.5116C15.1361 12.3269 14.9406 12.1245 14.739 11.9158C14.0768 11.23 13.3491 10.4765 12.6047 10.0614C12.1778 9.82342 11.6605 9.74853 11.1771 9.75175C9.83717 9.76067 9.05537 10.5059 8.17061 11.4057L7.83966 11.7455L7.83553 6.88414C7.83549 6.61229 7.84337 6.33 7.85138 6.04281C7.87623 5.15261 7.90239 4.21542 7.69795 3.39656C7.67573 3.30998 7.65058 3.22426 7.62248 3.13939C7.59439 3.05453 7.56342 2.97071 7.52957 2.88795C7.49572 2.80519 7.45908 2.72368 7.41965 2.64341C7.3802 2.56314 7.33806 2.4843 7.29321 2.40689C7.24836 2.32949 7.20091 2.2537 7.15087 2.17951C7.10081 2.10533 7.04828 2.03293 6.99327 1.96233C6.93825 1.89171 6.88087 1.82305 6.82115 1.75634C6.76142 1.68963 6.69947 1.62503 6.63531 1.56252C5.89983 0.83797 4.87942 0.521892 3.85859 0.529814ZM4.64682 2.69179C4.30926 2.55219 3.98843 2.5479 3.62843 2.58198C3.07324 2.76601 2.60632 3.00113 2.33234 3.54334C2.18494 3.83505 2.12744 4.16087 2.11257 4.48466C2.09005 4.97498 2.10123 5.47087 2.1124 5.96577C2.11885 6.2516 2.12529 6.5371 2.12522 6.82101L2.11339 18.5884C2.11361 18.8384 2.10735 19.1644 2.1003 19.5318C2.07388 20.9081 2.03629 22.8661 2.28628 23.5895C2.31462 23.6698 2.34681 23.7486 2.38284 23.8258C2.41886 23.903 2.45856 23.9782 2.50194 24.0516C2.54531 24.125 2.59215 24.1961 2.64245 24.2649C2.69275 24.3338 2.74629 24.4 2.80306 24.4636C2.85983 24.5273 2.91956 24.588 2.98226 24.6459C3.04496 24.7039 3.11033 24.7586 3.17837 24.8101C3.24639 24.8618 3.31678 24.91 3.38951 24.9548C3.46225 24.9995 3.53699 25.0406 3.61375 25.0782C4.00278 25.2654 4.44282 25.3285 4.87048 25.3524C5.36335 25.38 5.86299 25.3738 6.36025 25.3677C6.56447 25.3651 6.76828 25.3626 6.97106 25.3624L16.2128 25.3553C16.4081 25.3553 16.6708 25.3612 16.9705 25.368C18.0629 25.3927 19.647 25.4285 20.2532 25.2252C20.5231 25.1347 20.7737 24.9484 20.9909 24.7698C21.568 24.2948 22.1054 23.7522 22.6383 23.2143C22.8437 23.007 23.0483 22.8003 23.2544 22.5985C23.4539 22.403 23.6596 22.2106 23.8657 22.0179C24.233 21.6744 24.6016 21.3297 24.9384 20.9641C24.9527 20.9439 24.9677 20.9232 24.9831 20.902C25.0988 20.7427 25.2331 20.5577 25.2018 20.3587C25.1077 19.7625 22.2495 17.0947 21.6493 16.6851C21.531 16.6044 21.4061 16.528 21.2784 16.4627C20.9871 16.5985 20.6526 16.9131 20.3008 17.2438C19.6774 17.8301 18.9998 18.4672 18.4128 18.2505C18.1852 18.1663 17.981 18.0207 17.7971 17.8658C17.3779 17.5126 16.9887 17.1086 16.6025 16.7076C16.4202 16.5183 16.2386 16.3298 16.0548 16.1476L13.331 13.4894C13.2252 13.3844 13.1146 13.2691 13 13.1496C12.5486 12.6791 12.0336 12.1422 11.4936 11.9013C11.2845 11.8081 11.0943 11.8074 10.8826 11.8964C10.3294 12.1291 9.61036 12.9389 8.90007 13.7388C8.25027 14.4706 7.6078 15.1941 7.1064 15.46C6.84585 15.5982 6.56677 15.6427 6.28588 15.5362C6.12068 15.4735 5.92038 15.357 5.84672 15.1916C5.64535 14.7398 5.70189 9.72035 5.72785 7.41505C5.73295 6.96225 5.73687 6.61417 5.73743 6.42596C5.73801 6.23015 5.74557 6.02205 5.75335 5.80816C5.77739 5.14737 5.80342 4.43142 5.63157 3.85252C5.48011 3.34234 5.14923 2.89957 4.64682 2.69179Z" fill="#333333"/>
<path d="M10.0978 16.2937C10.6204 16.2685 11.6651 16.1333 12.1188 16.3508C12.1876 16.5926 12.2094 16.8448 12.2205 17.0951C12.2523 17.8002 12.3408 22.5476 12.1855 23.0177C12.1304 23.1846 12.0058 23.2493 11.8571 23.3274C11.4964 23.3584 11.1327 23.3946 10.7706 23.3965C10.4883 23.398 10.1364 23.3738 9.92823 23.1625C9.64261 22.8727 9.77111 18.3122 9.78518 17.612C9.79404 17.1705 9.75598 16.6207 10.0978 16.2937Z" fill="#333333"/>
<path d="M14.0995 19.2366C14.6451 19.2235 15.6007 19.0888 16.0863 19.2928C16.2893 19.8052 16.3271 22.5998 16.108 23.093C16.0387 23.2492 15.9173 23.2738 15.7699 23.3312C15.3758 23.3707 14.9672 23.39 14.5711 23.3839C14.3112 23.3799 13.9824 23.3612 13.793 23.1649C13.6256 22.6937 13.5752 19.881 13.7772 19.4668C13.8572 19.3027 13.9371 19.2911 14.0995 19.2366Z" fill="#333333"/>
<path d="M6.85674 19.9933C7.18977 19.9909 7.5257 19.981 7.85846 19.9918C7.98998 19.9961 8.09256 19.9926 8.1841 20.0894C8.3556 20.784 8.40169 22.4567 8.2157 23.144C8.01184 23.3776 7.63832 23.3587 7.3509 23.3842C7.00056 23.3843 6.15855 23.4625 5.89089 23.2444C5.76651 23.1431 5.75341 22.7896 5.74104 22.6337C5.71454 22.2991 5.67525 20.2703 5.81744 20.123C5.98181 19.9527 6.61788 19.9992 6.85674 19.9933Z" fill="#333333"/>
<path d="M17.9001 21.2718C18.4583 21.2602 19.1009 21.1696 19.6495 21.2396C19.8539 21.2657 20.0636 21.3436 20.1894 21.5145C20.4374 21.8516 20.3833 22.5332 20.3158 22.9241C20.2779 23.1433 20.1869 23.2294 20.0068 23.3518C19.5092 23.4463 18.4644 23.5481 17.9973 23.3456C17.8195 23.2685 17.6901 23.1256 17.6202 22.9465C17.5006 22.6403 17.4761 21.7627 17.6202 21.4598C17.6855 21.3225 17.7647 21.3188 17.9001 21.2718Z" fill="#333333"/>
<path d="M38.1102 22.6044H33.0542V10.0611H38.084C40.3195 10.0611 41.7865 11.2955 41.7865 13.1904C41.7865 14.5204 40.7998 15.7113 39.5423 15.9199V15.9894C41.2538 16.1807 42.4065 17.3889 42.4065 19.0579C42.4065 21.2658 40.791 22.6044 38.1102 22.6044ZM35.0102 11.6519V15.3983H37.202C38.8961 15.3983 39.8305 14.7029 39.8305 13.4599C39.8305 12.2951 39.0271 11.6519 37.6125 11.6519H35.0102ZM35.0102 21.0137H37.7085C39.4724 21.0137 40.4068 20.2922 40.4068 18.9362C40.4068 17.5801 39.4462 16.8847 37.595 16.8847H35.0102V21.0137Z" fill="#333333"/>
<path d="M47.707 14.8072C46.3884 14.8072 45.4628 15.8069 45.3667 17.189H49.9599C49.9163 15.7895 49.0256 14.8072 47.707 14.8072ZM49.9512 19.9184H51.7413C51.4794 21.5874 49.8901 22.7782 47.7856 22.7782C45.0873 22.7782 43.4544 20.9615 43.4544 18.0756C43.4544 15.2071 45.1135 13.2948 47.707 13.2948C50.2568 13.2948 51.8461 15.0854 51.8461 17.8583V18.5015H45.358V18.6145C45.358 20.2053 46.3186 21.2571 47.8293 21.2571C48.9033 21.2571 49.698 20.7181 49.9512 19.9184Z" fill="#333333"/>
<path d="M53.3131 22.6044V13.4599H55.112V14.9898H55.1557C55.6534 13.9467 56.6314 13.3034 58.046 13.3034C60.0719 13.3034 61.2333 14.5899 61.2333 16.6848V22.6044H59.3384V17.0499C59.3384 15.6765 58.6922 14.9202 57.3824 14.9202C56.0551 14.9202 55.1993 15.859 55.1993 17.2759V22.6044H53.3131Z" fill="#333333"/>
<path d="M70.9437 16.6066H69.1448C68.9527 15.633 68.2192 14.8594 66.9879 14.8594C65.5296 14.8594 64.5691 16.0677 64.5691 18.0322C64.5691 20.0401 65.5384 21.2049 67.0054 21.2049C68.1668 21.2049 68.9265 20.5704 69.1448 19.5099H70.9611C70.7603 21.457 69.1972 22.7782 66.9879 22.7782C64.3595 22.7782 62.648 20.9876 62.648 18.0322C62.648 15.1289 64.3595 13.2948 66.9705 13.2948C69.3369 13.2948 70.7777 14.8072 70.9437 16.6066Z" fill="#333333"/>
<path d="M75.5107 21.2744C76.8292 21.2744 77.8596 20.3704 77.8596 19.1796V18.4581L75.598 18.5972C74.4715 18.6754 73.834 19.1709 73.834 19.9532C73.834 20.7529 74.4977 21.2744 75.5107 21.2744ZM74.9867 22.7609C73.1879 22.7609 71.9304 21.6482 71.9304 20.0053C71.9304 18.4059 73.1617 17.4237 75.3447 17.302L77.8596 17.1542V16.4501C77.8596 15.4331 77.1698 14.8246 76.0171 14.8246C74.9256 14.8246 74.2445 15.3462 74.0786 16.1633H72.2972C72.402 14.5117 73.8166 13.2948 76.087 13.2948C78.3137 13.2948 79.7371 14.4682 79.7371 16.3023V22.6044H77.9295V21.1006H77.8858C77.3532 22.1176 76.1918 22.7609 74.9867 22.7609Z" fill="#333333"/>
<path d="M81.5709 22.6044V13.4599H83.3697V15.0159H83.4134C83.719 13.9467 84.5398 13.3121 85.6227 13.3121C85.8934 13.3121 86.1291 13.3556 86.2688 13.3817V15.1289C86.1204 15.068 85.7886 15.0246 85.4218 15.0246C84.208 15.0246 83.457 15.833 83.457 17.1281V22.6044H81.5709Z" fill="#333333"/>
<path d="M87.2731 16.0503C87.2731 14.4161 88.7226 13.2948 90.8708 13.2948C92.9141 13.2948 94.3462 14.4335 94.4074 16.059H92.6347C92.5474 15.2332 91.875 14.7203 90.8184 14.7203C89.7967 14.7203 89.1156 15.2158 89.1156 15.9373C89.1156 16.5023 89.5697 16.8847 90.5215 17.1194L92.0671 17.4758C93.9183 17.9191 94.6169 18.6145 94.6169 19.9619C94.6169 21.6308 93.0538 22.7782 90.8009 22.7782C88.6266 22.7782 87.1857 21.6569 87.0373 19.9793H88.906C89.0545 20.8572 89.7356 21.344 90.8882 21.344C92.0234 21.344 92.722 20.8746 92.722 20.1357C92.722 19.5533 92.3727 19.2317 91.4122 18.9883L89.7705 18.5885C88.1114 18.1886 87.2731 17.3281 87.2731 16.0503Z" fill="#333333"/>
</g>
<defs>
<clipPath id="clip0_654_6446">
<rect width="100" height="27" fill="white" transform="translate(0 0.5)"/>
</clipPath>
</defs>
</svg>
