<svg width="101" height="12" viewBox="0 0 101 12" fill="none" xmlns="http://www.w3.org/2000/svg">
<g clip-path="url(#clip0_657_2703)">
<path d="M87.5191 4.42467C87.5188 4.13795 87.4621 3.85409 87.3521 3.58929C87.2422 3.3245 87.0811 3.08396 86.8782 2.8814C86.6753 2.67885 86.4344 2.51824 86.1694 2.40876C85.9044 2.29928 85.6205 2.24307 85.3338 2.24333H75.7338L76.6078 3.698H85.3338C85.4319 3.6938 85.5299 3.7095 85.6218 3.74415C85.7137 3.77881 85.7976 3.83171 85.8686 3.89966C85.9395 3.96761 85.9959 4.04922 86.0345 4.13956C86.073 4.2299 86.0929 4.32711 86.0929 4.42533C86.0929 4.52356 86.073 4.62077 86.0345 4.71111C85.9959 4.80145 85.9395 4.88305 85.8686 4.951C85.7976 5.01896 85.7137 5.07185 85.6218 5.10651C85.5299 5.14117 85.4319 5.15687 85.3338 5.15267H75.7338V9.51667H77.4818V6.60667H83.9431L85.6258 9.516H87.5198L85.8078 6.55467C86.2929 6.44741 86.7269 6.17789 87.0382 5.79063C87.3495 5.40336 87.5193 4.92152 87.5198 4.42467H87.5191ZM58.9478 5.152H50.6584V2.24267H48.9098V9.51533H50.6584V6.60667H58.9478V9.51533H60.6958V2.24267H58.9478V5.152ZM37.2518 5.87933C37.2519 5.59256 37.3086 5.30862 37.4185 5.04375C37.5285 4.77888 37.6895 4.53826 37.8924 4.33564C38.0954 4.13301 38.3362 3.97235 38.6013 3.86283C38.8663 3.7533 39.1503 3.69707 39.4371 3.69733H46.4151L47.2891 2.24267H39.1458C38.1809 2.24266 37.2554 2.62555 36.5726 3.30726C35.8898 3.98897 35.5054 4.91379 35.5038 5.87867C35.5025 6.66595 35.7584 7.43212 36.2324 8.06067C36.5718 8.51268 37.0117 8.8795 37.5174 9.1321C38.023 9.38469 38.5805 9.51613 39.1458 9.516H46.4151L47.2891 8.06133H39.4378C38.8587 8.06151 38.3033 7.83178 37.8935 7.42264C37.4837 7.01349 37.2525 6.4584 37.2518 5.87933ZM98.4844 2.24333L94.3338 5.432L90.1831 2.24333H87.6198L93.2998 6.60667V9.51533H95.2778V6.60667L100.958 2.24333H98.4844ZM64.0751 4.40667C64.0798 4.21702 64.1584 4.03671 64.2942 3.90419C64.4299 3.77168 64.6121 3.69745 64.8018 3.69733H73.2384L74.1124 2.24267H64.5124C64.2257 2.2424 63.9416 2.29864 63.6766 2.40816C63.4116 2.51768 63.1707 2.67834 62.9678 2.88097C62.7648 3.0836 62.6038 3.32422 62.4939 3.58909C62.3839 3.85396 62.3273 4.13789 62.3271 4.42467V9.51533H73.2384L74.1124 8.06067H64.0751V6.60667H71.4904L72.3644 5.152H64.0751V4.40667ZM23.7011 2.49533C21.7591 1.91467 19.3144 1.516 16.6104 1.38267C15.9654 1.35086 15.3196 1.33441 14.6738 1.33333H14.5151C13.8578 1.33467 13.2118 1.35133 12.5798 1.38267C9.8751 1.516 7.42976 1.91333 5.48843 2.496C2.7071 3.32667 0.957764 4.53533 0.957764 5.87867C0.957764 7.016 2.2131 8.05733 4.28643 8.85467C5.12776 9.17867 6.10443 9.46267 7.18776 9.696C8.12557 9.89666 9.07243 10.0524 10.0251 10.1627C11.5418 10.3392 13.0675 10.4264 14.5944 10.424C16.1213 10.4264 17.6471 10.3391 19.1638 10.1627C20.1164 10.0521 21.0632 9.89633 22.0011 9.696C23.0838 9.46267 24.0611 9.178 24.9024 8.85467C26.9764 8.058 28.2311 7.01667 28.2311 5.87867C28.2311 4.53467 26.4818 3.32667 23.7004 2.49467L23.7011 2.49533ZM6.61976 7.16533C6.05243 7.57667 5.30643 7.65867 4.66843 7.36867C3.4711 6.82533 2.7751 6.178 2.7751 5.48267C2.7751 4.61067 3.87043 3.81267 5.67843 3.20267C7.64176 2.54 10.4451 2.09867 13.6011 2.022L13.7278 2.01933C13.9178 2.01467 14.1078 2.01267 14.3011 2.01067C14.1718 2.03067 14.0478 2.06267 13.9291 2.10733L13.9244 2.10867C13.8844 2.124 13.8444 2.14 13.8064 2.158L13.8004 2.154C13.3271 2.344 12.6871 2.77867 12.4804 2.92267L12.4451 2.948L12.4124 2.97067L7.3691 6.62267L6.61976 7.16533ZM19.3664 8.66067C17.9064 8.85067 16.2924 8.956 14.5951 8.956C12.8971 8.956 11.2831 8.85067 9.82376 8.66067C8.49043 8.42067 9.1331 7.51667 9.48176 7.12867C9.53644 7.06682 9.59406 7.00764 9.65443 6.95133L9.65643 6.94933C10.8413 5.74591 12.1016 4.61919 13.4298 3.576H13.4318C13.4577 3.5544 13.4844 3.53372 13.5118 3.514C13.6964 3.376 14.1678 3.06067 14.5951 3.06133C15.0204 3.06067 15.4924 3.376 15.6771 3.514C15.701 3.53068 15.7242 3.54848 15.7464 3.56733L15.7551 3.574L15.7591 3.57733C17.0878 4.6211 18.3488 5.74826 19.5344 6.952C19.5898 7.00393 19.643 7.0582 19.6938 7.11467C20.0404 7.49467 20.7144 8.41667 19.3664 8.66067ZM24.5211 7.36867C24.2067 7.50981 23.8605 7.56534 23.5177 7.52963C23.1749 7.49393 22.8477 7.36825 22.5691 7.16533L21.8198 6.62267L16.7764 2.97067C16.7764 2.97067 16.7704 2.96733 16.7598 2.95867L16.7444 2.948L16.7091 2.92267C16.5024 2.77867 15.8624 2.344 15.3884 2.154L15.3824 2.158C15.3453 2.14063 15.3075 2.12484 15.2691 2.11067L15.2604 2.10733C15.1405 2.06247 15.0163 2.03008 14.8898 2.01067C15.1229 2.01195 15.356 2.01573 15.5891 2.022C18.7444 2.09867 21.5478 2.54 23.5104 3.202H23.5111C25.3191 3.81267 26.4144 4.61067 26.4144 5.48267C26.4144 6.178 25.7191 6.82533 24.5211 7.36867Z" fill="#0C0C0B"/>
</g>
<defs>
<clipPath id="clip0_657_2703">
<rect width="100" height="12" fill="white" transform="translate(0.957764)"/>
</clipPath>
</defs>
</svg>
