<svg width="18" height="17" viewBox="0 0 18 17" fill="none" xmlns="http://www.w3.org/2000/svg">
<path d="M9.00033 0.125977C4.40533 0.125977 0.666992 3.86431 0.666992 8.45931C0.666992 13.0543 4.40533 16.7926 9.00033 16.7926C13.5953 16.7926 17.3337 13.0543 17.3337 8.45931C17.3337 3.86431 13.5953 0.125977 9.00033 0.125977ZM9.00033 15.126C5.32449 15.126 2.33366 12.1351 2.33366 8.45931C2.33366 4.78348 5.32449 1.79264 9.00033 1.79264C12.6762 1.79264 15.667 4.78348 15.667 8.45931C15.667 12.1351 12.6762 15.126 9.00033 15.126ZM12.282 6.19511C12.5161 7.52844 11.9545 8.72176 10.7011 9.55509C9.93031 10.0676 9.80783 10.3418 9.79116 10.3918C9.67366 10.7401 9.3495 10.9593 9.00117 10.9593C8.91283 10.9593 8.82283 10.9452 8.73449 10.9152C8.29866 10.7685 8.0645 10.296 8.21117 9.85935C8.4645 9.10852 9.227 8.53352 9.77784 8.16685C10.8145 7.47768 10.6828 6.72852 10.6403 6.48269C10.5253 5.82769 9.96533 5.26763 9.30949 5.15263C8.80366 5.06263 8.31366 5.19184 7.92949 5.51518C7.55116 5.83268 7.33366 6.29766 7.33366 6.79183C7.33366 7.25266 6.96033 7.62516 6.50033 7.62516C6.04033 7.62516 5.66699 7.25266 5.66699 6.79183C5.66699 5.80433 6.10115 4.87353 6.85781 4.23853C7.61365 3.60269 8.61367 3.34015 9.59783 3.51099C10.942 3.74765 12.0453 4.85094 12.282 6.19511ZM9.83366 12.626C9.83366 13.086 9.46033 13.4593 9.00033 13.4593C8.54033 13.4593 8.16699 13.086 8.16699 12.626C8.16699 12.166 8.54033 11.7926 9.00033 11.7926C9.46033 11.7926 9.83366 12.166 9.83366 12.626Z" fill="#8C8C8C"/>
</svg>
