<svg width="575" height="378" viewBox="0 0 575 378" fill="none" xmlns="http://www.w3.org/2000/svg">
<path d="M274.491 246.825C269.598 244.435 267.597 238.888 265.588 234.247C263.517 229.459 260.161 223.037 255.167 220.654C250.514 218.424 245.084 219.791 240.328 220.755C235.893 221.622 232.638 222.851 228.442 220.64C223.82 218.154 219.878 213.924 215.363 211.204C214.814 211.293 214.334 211.548 213.924 211.805C212.33 212.776 212.78 215.19 212.396 216.734C211.977 218.484 211.431 220.546 209.489 221.263C208.115 221.815 206.739 220.722 205.384 220.538C199.863 219.81 193.728 218.367 188.311 219.605C187.142 219.864 185.386 220.366 185.76 221.908C186.173 223.625 188.249 224.29 189.397 225.373C190.73 226.57 190.776 228.439 190.907 230.099C190.978 231.005 191.003 231.965 191.101 232.894C191.161 233.649 191.201 234.481 191.531 235.141C192.214 236.434 194.048 235.951 195.206 235.871C196.789 235.735 197.753 236.097 198.835 237.312C200.251 238.908 201.385 240.777 202.731 242.454C204.756 245.044 208.076 246.406 209.436 249.549C208.396 250.153 207.525 250.341 206.374 249.864C205.096 249.372 203.752 248.681 202.72 247.792C202.205 247.347 201.736 246.849 201.363 246.293C201.107 245.932 200.862 245.392 200.49 245.165C199.692 244.664 198.85 245.862 198.564 246.413C197.924 247.596 198.085 249.001 197.987 250.324C197.866 252.002 197.384 253.604 196.667 255.096C196.227 255.936 195.425 257.636 194.197 257.469C193.175 257.338 192.693 256.031 191.663 255.799C190.269 255.441 189.644 256.826 189.986 257.965C190.422 259.326 190.675 260.295 190.051 261.68C189.453 263.087 188.374 263.517 187.055 264.115C186.126 264.534 185.167 264.879 184.27 265.372C183.009 266.067 182.797 266.917 183.272 268.123C183.68 269.132 183.93 270.379 183.138 271.244C182.465 272.025 181.912 272.392 181.926 273.529C181.895 275.707 183.951 278.043 183.408 280.155C183.078 281.418 182.288 281.675 181.166 281.88C180.245 282.071 179.646 282.821 178.721 282.961C176.968 283.185 175.591 281.434 173.953 281.195C173.209 281.07 171.639 281.685 171.319 282.441C170.872 283.51 172.383 284.391 172.214 285.465C171.931 287.331 170.089 285.461 169.627 284.735C168.847 283.499 168.235 283.441 166.856 282.955C165.632 282.509 164.622 282.2 163.508 283.164C163.014 283.628 162.728 284.179 162.175 284.547C161.332 285.086 160.214 285.342 159.285 285.76C158.407 286.176 157.719 286.755 157.137 285.784C156.586 284.887 156.541 283.347 156.384 282.32C155.836 278.893 153.269 276.163 149.843 278.274C147.573 279.647 145.258 281.731 144.267 284.254C143.758 285.504 143.587 287.186 144.096 288.516C145.092 291.204 148.616 292.273 150.856 293.736C152.085 294.561 153.332 295.309 154.758 295.74C155.9 296.116 157.054 296.313 158.112 296.897C160.596 298.242 161.468 301.292 162.32 303.763C162.713 304.899 163.435 306.037 164.477 306.749C165.57 307.457 166.704 307.074 167.827 307.527C168.923 307.956 169.731 309.215 170.166 310.247C170.57 311.206 170.672 311.856 171.413 312.589C172.18 313.345 172.689 314.346 173.43 315.079C174.221 315.808 175.456 316.076 176.34 316.697C177.836 317.706 179.39 318.812 180.654 320.089C181.751 321.176 182.876 322.287 183.9 323.404C185.474 325.09 187.141 326.34 189.241 327.307C191.418 328.293 193.356 329.777 195.17 331.294C196.554 332.488 198.321 333.402 199.891 334.38C201.224 335.248 202.437 336.2 203.77 337.069C206.006 338.481 208.613 339.463 210.71 341.036C214.818 344.063 218.985 346.859 223.39 349.486C226.281 351.181 228.635 353.774 231.117 356.055C233.051 357.817 234.518 359.738 236.166 361.723C236.95 362.68 237.614 363.721 238.397 364.679C239.239 365.733 240.147 366.985 241.078 367.881C242.117 368.871 243.496 369.357 244.465 370.427C244.853 370.856 245.075 371.422 245.49 371.874C246.103 372.59 247.254 373.395 248.122 373.815C248.885 374.192 249.736 374.082 250.576 374.149C252.946 374.364 255.273 374.682 257.65 374.996C260.334 375.34 263.035 374.949 265.713 374.585C268.515 374.187 271.361 374.343 274.133 374.857C276.213 375.243 278.439 375.569 280.507 376.132C279.901 374.53 279.383 373.099 279.321 372.952C278.263 370.117 277.898 367.081 277.138 364.174C276.784 362.884 276.344 361.472 276.543 360.143C276.746 358.864 277.631 357.892 278.465 356.923C280.575 354.473 281.57 352.329 281.847 349.097C282.091 346.728 282.643 343.451 285.429 342.852C288.064 342.263 290.43 345.007 292.171 346.555C294.486 348.645 296.928 351.08 299.857 352.292C301.689 353.075 304.012 353.343 305.983 353.635C308.976 354.059 309.098 350.458 309.458 348.282C310.017 344.778 310.215 340.539 308.696 337.306C307.511 334.783 306.03 330.738 308.143 328.339L308.166 328.312C304.161 324.67 296.17 316.982 300.793 317.873C306.858 319.069 310.041 312.901 306.395 308.678C302.753 304.506 304.434 295.964 299.538 292.259C294.616 288.529 283.385 285.974 284.043 278.896C284.697 271.767 281.977 270.641 286.467 270.151C290.728 269.651 302.192 274.153 300.666 259.89C300.054 259.832 298.757 259.664 298.168 259.579C293.278 258.833 296.119 257.461 295.184 253.934C294.533 251.449 292.318 246.664 290.627 244.784C285.573 246.148 279.543 249.306 274.491 246.825ZM276.209 309.243C278.97 312.187 280.917 316.352 282.765 319.916C285.1 324.509 286.363 329.961 283.723 334.673C282.832 336.203 281.31 338.08 279.355 337.989C277.45 337.894 276.316 336.025 275.489 334.515C274.658 332.954 271.954 324.617 269.099 325.955C266.144 327.3 269.093 335.847 269.391 338.027C270.021 342.511 267.75 345.478 266.762 349.645C265.913 353.321 267.144 357.713 265.57 361.188C264.232 364.114 260.767 363.8 258.372 362.297C256.589 361.182 255.433 359.34 253.747 358.168C252.65 357.41 251.294 356.897 250.147 356.143C247.985 354.7 245.236 352.564 245.611 349.604C246.123 345.824 250.791 343.424 252.454 340.12C254.159 336.712 253.564 332.681 254.185 328.995C254.921 324.517 255.799 319.598 252.297 315.922C248.213 311.603 242.709 313.985 237.895 315.182C232.61 316.487 228.588 314.238 223.803 312.27C220.588 310.951 216.873 311.312 213.869 309.473C211.819 308.174 210.028 306.3 208.561 304.379C207.828 303.418 205.95 301.096 206.885 299.791C207.796 298.513 210.79 299.265 212.017 299.432C214.778 299.796 217.547 300.261 220.307 300.624C225.089 301.277 229.706 302.725 234.469 303.455C239.665 304.231 243.009 301.721 247.384 299.442C252.388 296.816 257.494 299.014 262.321 301.207C266.99 303.31 272.568 305.399 276.132 309.223L276.209 309.243Z" fill="#D1F005"/>
<path d="M483.809 51.4349C484.126 53.6519 485.171 55.7383 486.461 57.7044C485.065 63.9446 483.403 69.339 478.598 73.8727C475.386 76.8873 467.22 79.9912 466.454 84.784C465.476 90.4838 474.798 94.3975 478.101 97.4358C484.432 103.227 480.892 110.748 478.552 117.644C477.445 120.909 477.443 124.731 476.877 128.084C475.702 128.018 474.115 128.107 472.939 128.373C471.5 128.974 471.132 130.941 469.223 131.618C466.172 132.685 462.696 128.246 460.56 126.547C458.425 124.847 455.751 123.767 452.883 124.897C450.339 125.927 448.768 128.99 446.891 130.785C444.658 132.938 442.59 130.585 440.806 128.477C439.639 127.138 438.073 122.938 435.928 123.174C433.806 123.383 433.842 128.834 433.491 130.286C432.802 133.01 431.346 135.251 428.483 136.101C425.791 136.862 423.512 137.235 421.284 139.107C419.224 140.839 417.175 142.5 417.789 145.306C417.866 145.656 417.063 146.313 417.19 146.66C415.65 147.844 411.719 158.347 409.812 159.737C407.928 161.099 402.723 156.089 398.56 155.534C394.448 154.975 396.238 161.04 398.974 165.011C401.738 169.006 396.229 168.744 391.663 170.306C387.124 171.892 380.799 176.157 378.189 178.363C375.602 180.542 377.267 192.357 377.267 192.357C375.545 190.398 373.182 188.08 370.54 187.794C366.385 187.339 362.954 190.498 358.579 189.474C354.021 188.388 351.727 184.893 350.423 180.687C348.923 175.885 347.906 171.072 343.743 167.767C340.229 164.973 335.496 164.97 331.923 162.41C324.485 157.133 325.491 145.957 331.846 140.722C335.44 137.705 339.518 135.389 339.825 130.249C340.071 126.004 338.568 120.82 336.98 116.89C334.395 110.488 328.258 105.955 326.461 99.1893C325.287 94.6683 327.337 92.1221 328.354 87.9725C329.511 83.3287 327.088 78.7735 324.137 75.3271C322.356 73.2701 299.915 57.0943 299.821 57.2031C299.821 57.2031 310.114 47.0663 307.576 40.6101C305.011 34.1305 295.394 27.2598 306.397 23.2826C317.4 19.3054 325.57 21.7518 330.12 18.9429C334.67 16.1341 343.63 16.1793 349.359 6.94277C349.524 7.46509 349.788 7.92923 350.152 8.38582C351.378 9.82215 353.377 10.3606 355.179 10.3027C356.88 10.2523 358.532 9.54356 360.229 9.7736C362.334 10.0241 363.679 11.7061 364.721 13.4107C365.732 15.0412 366.693 18.0505 368.582 18.8263C370.576 19.6452 371.739 17.1397 372.238 15.6258C372.741 14.1625 372.568 10.7891 373.867 9.77565C374.877 8.98745 376.389 9.81683 377.364 10.2788C378.421 10.8111 379.487 11.1136 380.54 11.5952C381.543 12.0807 385.69 15.5144 386.04 12.6875C386.252 10.7367 386.476 9.98164 387.68 8.36427C388.723 6.988 389.297 5.11208 391.054 4.44643C394.744 3.07661 399.208 5.64639 402.552 6.82302C406.363 8.11764 410.176 7.04413 413.879 9.28884C415.639 10.3798 417.28 11.9379 417.765 14.015C418.076 15.4686 417.854 16.9365 418.239 18.3591C418.678 19.8286 419.433 21.0962 419.522 22.6427C419.604 24.0879 419.607 25.5135 419.763 26.9278C419.983 28.8719 420.468 30.618 420.988 32.4889C421.408 34.0362 421.165 35.913 422.177 37.2125C423.131 38.4144 424.853 38.9989 425.998 40.0338C427.687 41.5375 428.974 42.0782 431.194 41.4799C431.942 41.2714 432.612 41.0432 433.429 41.0841C433.916 41.1242 434.394 41.3942 434.872 41.333C435.982 41.1994 437.375 40.0771 438.35 39.4953C439.886 38.5915 440.839 37.3747 442.791 37.9676C444.094 38.3797 445.267 39.107 446.323 39.9704C447.084 40.6266 447.77 41.6449 448.781 41.9005C450.804 42.4118 453.531 41.4446 454.816 39.8976C456.878 37.5033 457.325 33.5744 461.273 35.699C464.771 37.5771 467.115 41.0688 470.496 43.0829C473.954 45.1167 477.54 43.0417 480.973 44.3899C483.908 45.546 483.412 48.8166 483.751 51.3374L483.809 51.4349Z" fill="#AFAFAF" stroke="#F2F2F2" stroke-width="2"/>
<path d="M521.384 169.127C525.354 171.318 527.146 174.997 528.905 178.932C530.148 181.712 531.008 185.156 532.739 187.644C534.527 190.23 536.79 192.703 538.89 195.036C540.739 197.057 542.897 198.775 544.484 201.045C545.334 202.253 547.246 205.134 546.516 206.639C545.567 208.618 541.275 208.995 539.761 210.534C537.84 212.435 539.207 214.467 540.794 216.025C544.053 219.262 549.978 220.389 554.416 220.612C558.037 220.795 561.471 222.238 565.068 221.736C566.779 221.504 568.512 221.576 569.831 222.951C570.129 223.208 569.82 223.842 570.071 224.154C570.237 224.345 571.021 224.641 571.083 224.789C571.937 226.759 569.071 230.689 568.03 232.447C566.468 235.083 564.929 237.693 561.532 237.798C559.911 237.87 558.245 237.666 557.774 239.584C557.327 241.474 558.102 242 556.792 243.905C554.836 246.724 551.454 248.787 548.258 249.92C544.37 251.308 540.223 252.284 537.963 256.169C535.05 261.197 529.067 260.685 525.102 264.521C523.37 266.204 523.085 268.235 521.822 270.085C520.906 271.477 520.231 271.274 518.614 271.397C516.895 271.528 515.455 271.993 514.232 272.645C512.76 270.57 511.158 268.097 508.858 266.873C506.667 265.743 503.947 265.72 501.568 265.85C496.732 266.09 491.709 268.302 486.889 266.659C480.039 264.356 485.841 258.168 488.296 254.879C489.57 253.18 490.491 250.465 489.855 248.352C489.024 245.643 486.652 247.628 485.043 248.564C479.101 252.118 481.435 242.607 476.827 241.431C474.369 240.83 471.723 241.488 469.519 239.824C467.501 238.274 467.906 236.157 470.258 235.292C473.006 234.295 475.857 235.427 478.641 235.266C481.374 235.109 482.731 233.15 484.104 231.062C485.567 228.815 486.982 226.952 489.095 225.266C490.733 224.023 493.598 222.177 492.885 219.714C492.204 217.324 489.235 216.329 487.421 215.144C485.181 213.686 484.633 211.744 483.975 209.327C483.127 206.034 480.1 206.697 477.851 204.756C475.682 202.887 477.774 199.854 475.597 198.213C474.334 197.267 472.387 197.389 470.919 197.119C469.117 196.798 467.3 196.275 465.894 195.11C463.516 193.154 463.148 190.181 465.082 187.771C466.786 185.683 478.724 176.867 473.399 174.22C471.767 173.428 469.149 173.779 467.487 174.338C465.623 174.912 465.043 176.024 464.275 177.684C463.482 179.372 462.891 180.333 460.967 180.428C459.37 180.473 458.384 180.192 457.154 181.455C457.967 182.156 461.255 184.043 458.896 184.807C456.861 185.47 455.15 182.904 453.532 182.315C451.782 181.659 450.125 182.981 448.37 182.605C446.409 182.194 444.868 178.827 444.83 176.897C444.723 173.675 447.682 171.721 447.723 168.438C447.759 167.189 447.605 165.064 445.996 166C444.071 167.138 443.168 169.394 440.798 170.006C438.981 170.525 437.057 169.578 437.389 167.493C437.685 165.614 445.608 158.552 443.307 156.947C442.02 156.027 437.797 159.451 436.745 160.014C434.567 161.171 430.703 163.244 428.273 161.623C426.537 160.458 427.327 158.389 427.28 156.688C427.189 154.381 425.13 153.317 423.397 152.202C421.374 150.931 418.877 149.442 417.896 147.126C417.746 146.807 417.67 146.457 417.594 146.106C416.984 143.304 418.834 140.443 420.894 138.709C423.121 136.836 425.691 136.539 428.38 135.776C431.24 134.923 432.245 132.659 432.937 129.936C433.312 128.458 433.573 122.945 435.692 122.733C437.811 122.522 440.339 127.594 441.503 128.93C443.282 131.033 445.189 132.109 447.422 129.956C449.322 128.133 450.62 125.364 453.163 124.332C456.028 123.199 459.101 125.28 461.231 126.975C463.362 128.669 465.825 132.501 468.876 131.481C470.811 130.825 471.66 128.523 473.508 128.077C474.683 127.81 475.86 127.924 477.01 128.015C476.612 130.232 476.163 132.453 475.481 134.616C473.933 139.54 470.313 147.089 477.48 148.859C480.225 149.566 483.47 149.472 485.446 151.84C487.809 154.636 487.225 158.495 487.241 161.877C487.23 164.522 485.814 168.47 488.679 170.135C490.959 171.437 494.011 171.129 496.246 170.069C498.583 169.001 500.477 167.789 503.139 167.714C505.623 167.628 507.915 168.751 510.268 169.31C514.461 170.365 517.519 166.979 521.357 169.103L521.384 169.127Z" fill="#AFAFAF" stroke="#F2F2F2" stroke-width="2"/>
<path d="M465.551 188.338C463.671 190.741 463.362 192.902 465.76 194.875C467.177 196.05 469.031 196.607 470.814 196.914C472.289 197.192 474.271 197.103 475.517 198.035C477.711 199.69 475.625 202.72 477.812 204.605C480.08 206.562 483.116 205.913 483.984 209.218C484.657 211.645 485.216 213.594 487.472 215.067C489.299 216.264 492.285 217.276 492.981 219.675C493.709 222.149 490.842 223.985 489.204 225.223C487.086 226.852 485.651 228.739 484.221 231.009C482.829 233.122 481.477 235.08 478.757 235.196C475.963 235.343 473.067 234.171 470.34 235.181C467.984 236.037 467.564 238.183 469.621 239.721C471.843 241.4 474.495 240.753 476.966 241.368C481.599 242.57 479.303 252.094 485.251 248.56C486.835 247.606 489.233 245.651 490.082 248.371C490.731 250.493 489.819 253.21 488.549 254.907C486.124 258.165 480.306 264.367 487.195 266.71C492.038 268.331 496.629 265.606 501.51 265.414C503.898 265.295 507.048 265.89 509.253 267.034C511.568 268.273 513.432 270.236 514.897 272.351C512.01 273.933 510.107 277.38 508.591 280.854C507.017 284.562 505.509 287.806 505.11 291.864C504.598 297.104 502.888 301.689 499.668 305.87C498.767 307.082 497.808 308.196 496.876 309.333C492.895 306.988 488.687 304.685 484.121 304.677C478.947 304.712 474.147 303.649 469.015 302.916C464.192 302.212 458.436 301.983 453.97 304.238C453.455 304.504 452.944 304.821 452.511 305.157C455.207 286.985 426.081 285.631 417.476 284.838C408.899 284.069 397.884 272.913 393.002 267.52C388.149 262.151 387.076 263.12 370.704 258.184C368.51 257.523 366.383 256.73 364.451 255.49C362.171 254.045 361.631 252.349 360.295 250.25C358.643 247.689 356.292 250.253 354.541 251.346C353.008 252.297 351.471 253.196 349.907 254.072C349.603 254.426 349.275 254.806 348.846 255.193C346.978 257.086 344.997 258.833 343.098 260.651C341.367 262.329 340.307 265.108 338.12 262.56C336.324 260.442 337.102 257.658 334.651 255.638C330.192 257.995 328.148 265.511 322.115 263.668C319.32 262.821 317.804 260.378 315.521 258.882C315.521 258.882 315.815 255.111 317.979 253.428C320.144 251.744 325.283 251.252 325.971 248.296C326.633 245.316 328.345 243.715 329.698 242.089C331.074 240.435 332.442 232.431 337.4 235.523C340.831 237.678 342.508 241.206 346.809 243.401C346.774 243.276 346.739 243.151 346.727 242.999C346.667 240.58 350.279 238.819 351.878 237.736C352.994 236.994 353.742 236.125 355.163 236.356C356.689 236.63 358.168 237.622 359.41 238.503C361.842 240.269 363.849 242.474 366.234 244.294C370.923 247.864 372.888 244.919 377.425 242.914C380.779 241.452 385.747 242.375 387.809 239.041C390.581 234.662 389.219 227.948 391.061 223.099C392.584 219.063 395.848 216.103 397.106 211.933C398.402 207.607 397.598 183.102 390.112 186.872C386.801 188.56 386.833 196.541 382.369 195.863C380.175 195.534 378.578 193.683 376.954 191.809C376.954 191.809 375.83 180.283 378.416 178.11C381.025 175.91 387.351 171.662 391.896 170.09C396.468 168.541 401.502 168.669 398.717 164.658C395.909 160.674 394.61 154.772 398.758 155.32C402.906 155.868 408.17 160.928 410.053 159.57C411.937 158.212 415.742 147.019 417.333 145.835C418.33 148.162 420.911 150.281 422.952 151.616C424.721 152.715 427.48 154.156 427.533 156.474C427.616 158.202 426.751 160.099 427.895 161.085C430.342 162.723 434.212 160.663 436.392 159.514C437.446 158.954 441.669 155.543 442.965 156.472C446.753 159.185 437.992 165.206 437.732 167.112C437.41 169.201 438.69 170.063 440.512 169.552C442.86 168.926 443.757 166.669 445.711 165.561C447.322 164.631 447.754 167.105 447.723 168.357C447.698 171.649 445.237 173.223 445.36 176.454C445.432 178.362 446.205 181.799 448.176 182.22C449.964 182.578 451.648 181.286 453.358 181.955C454.962 182.581 456.692 185.162 458.756 184.48C461.097 183.753 457.427 182.301 456.63 181.567C457.882 180.279 459.21 180.138 460.814 180.1C462.772 180.038 463.334 179.055 464.121 177.366C464.908 175.678 465.461 174.593 467.33 174.027C469 173.526 471.622 173.136 473.265 173.938C478.624 176.619 467.682 185.752 466.006 187.809L465.551 188.338Z" fill="#CCCCCC" stroke="#F2F2F2" stroke-width="2"/>
<path d="M324.749 75.32C327.695 78.7608 330.085 83.286 328.954 87.9483C327.937 92.0934 325.888 94.6376 327.058 99.1526C328.85 105.91 334.975 110.434 337.554 116.827C339.138 120.752 340.636 125.929 340.388 130.168C340.079 135.303 336.005 137.618 332.415 140.634C326.069 145.916 325.056 157.029 332.481 162.295C336.071 164.823 340.798 164.824 344.282 167.64C348.414 170.966 349.451 175.745 350.947 180.541C352.246 184.741 354.535 188.231 359.087 189.314C363.456 190.334 366.884 187.177 371.033 187.629C373.671 187.914 375.468 189.89 377.164 191.873C378.774 193.736 380.381 195.548 382.541 195.895C386.962 196.58 386.958 188.57 390.291 186.896C397.763 183.105 398.464 207.542 397.155 211.861C395.885 216.025 392.649 219.015 391.088 223.023C389.233 227.866 390.563 234.556 387.784 238.935C385.693 242.296 380.772 241.369 377.424 242.841C372.897 244.859 370.904 247.831 366.272 244.262C363.93 242.48 361.913 240.267 359.497 238.515C358.264 237.641 356.818 236.631 355.276 236.391C353.862 236.166 353.112 237.036 351.998 237.781C350.374 238.844 346.796 240.638 346.846 243.05C346.857 243.202 346.891 243.326 346.926 243.451C342.65 241.28 340.995 237.768 337.585 235.633C332.66 232.57 331.264 240.558 329.886 242.212C328.481 243.843 326.797 245.47 326.149 248.418C325.478 251.393 320.33 251.881 318.167 253.569C316.004 255.257 315.696 259.018 315.696 259.018C315.401 258.811 315.083 258.632 314.742 258.479C312.087 257.28 309.925 258.637 307.311 259.368C305.07 259.994 302.329 260.047 299.823 259.828C299.209 259.772 298.568 259.693 297.978 259.61C293.071 258.885 295.827 256.618 294.906 253.077C294.266 250.582 291.905 247.504 290.217 245.621C285.136 247.02 278.785 249.124 273.725 246.656C268.825 244.277 266.921 238.418 264.927 233.762C262.872 228.957 260.586 223.432 255.584 221.061C250.923 218.843 245.606 220.132 240.825 221.126C236.368 222.02 232.078 222.775 227.876 220.572C223.248 218.097 219.811 213.854 215.292 211.141C216.773 210.903 218.549 211.202 219.823 211.259C221.965 211.353 222.426 210.708 224.202 209.633C227.785 207.559 234.83 210.413 233.458 203.497C232.683 199.512 228.057 197.418 224.392 197.337C218.589 197.213 211.114 200.622 206.069 196.27C201.783 192.574 202.758 184.745 207.649 182.14C210.83 180.477 214.622 180.905 217.842 179.417C220.497 178.2 221.943 175.752 223.657 173.488C227.941 167.8 231.29 168.083 238.032 168.544C240.383 168.723 244.034 169.644 246.276 168.688C249.456 167.356 248.583 164.471 248.375 161.639C248.104 157.946 248.732 157.492 252.194 156.546C254.859 155.812 257.601 155.428 255.995 152.243C254.57 149.451 251.087 148.39 249.96 145.143C249.055 142.515 249.52 139.505 248.915 136.804C248.407 134.376 246.761 131.346 248.499 129.054C250.494 126.463 254.131 127.894 256.662 126.712C261.353 124.504 256.998 119.185 256.859 115.559C256.661 109.75 257.809 103.917 258.326 98.1565C258.463 96.5696 258.417 95.2507 258.153 94.0753C262.152 93.1649 265.951 91.6083 269.846 90.3242C274.064 88.9396 278.661 88.2132 282.683 86.233C293.67 80.8311 294.515 66.7304 300.445 57.1561C300.538 57.0474 322.964 73.1653 324.718 75.2461L324.749 75.32Z" fill="#AFAFAF" stroke="#F2F2F2" stroke-width="2"/>
<path d="M32.9286 254.475C29.226 254.55 25.4765 254.679 22.0021 256.135C19.193 257.312 16.7426 259.225 13.8484 260.282C10.1879 261.624 0.21593 261.408 2.72563 267.93C4.0113 271.265 7.77069 271.617 10.8646 271.207C13.5543 270.827 18.3483 268.662 20.7612 270.742C23.0114 272.683 22.0449 276.823 22.7661 279.386C23.618 282.347 25.9923 282.169 28.5823 282.508C34.4463 283.16 38.3779 289.676 36.1239 295.311C34.152 300.288 28.5338 302.642 29.2346 308.741C29.5098 311.11 30.2999 313.922 31.6174 315.958C33.02 318.115 35.0667 318.317 37.483 318.364C40.3305 318.404 42.7689 318.755 45.4379 319.825C48.8944 321.243 51.9428 321.598 55.5454 320.158C57.3972 319.434 59.0949 318.341 60.9542 317.718C64.0738 316.619 66.554 315.111 68.9551 312.872C72.1669 309.91 75.3173 308.885 79.5545 308.135C83.1154 307.511 86.5234 306.187 90.0189 305.365C91.6909 304.96 93.3025 305.118 94.5308 303.857C96.067 302.293 97.3174 300.292 98.5554 298.471C99.7232 296.731 101.201 294.027 103.456 293.603C108.541 292.636 111.285 300.97 115.858 302.025C117.9 302.507 119.633 301.207 121.342 300.265C123.588 299.029 125.895 298.271 128.391 297.676C133.279 296.445 137.03 294.612 137.931 289.232C138.534 285.679 138.645 280.943 137.355 277.557C135.277 272.071 130.388 275.717 126.916 277.554C124.912 278.62 122.905 279.305 120.646 278.636C118.803 278.088 117.234 276.783 115.328 276.417C111.364 275.699 108.246 279.593 105.168 275.377C103.784 273.473 103.45 271.337 101.871 269.55C99.8245 267.263 97.9094 265.043 96.8789 262.071C95.656 258.553 94.3974 255.242 92.805 251.879C92.026 250.26 88.2066 236.262 84.9311 241.821C83.5318 244.214 84.486 247.879 85.0988 250.349C85.9261 253.667 87.006 256.967 88.7943 259.883C90.5826 262.798 93.1188 265.175 94.8837 268.118C96.6252 271.088 97.6312 274.418 98.5595 277.729C99.1809 279.97 100.879 284.087 99.9076 286.422C98.7991 288.971 95.473 285.866 94.0854 284.954C92.3726 283.761 89.2143 282.6 88.3552 280.581C87.342 278.191 88.9692 275.095 89.5097 272.767C90.2362 269.509 88.3716 267.286 86.5821 264.7C84.5338 261.703 83.1077 258.531 81.328 255.386C79.7257 252.583 76.9001 250.762 74.3738 248.868C71.4989 246.72 68.7644 244.409 66.1703 241.935C63.6033 239.485 60.9932 237.139 58.3561 234.77C56.8649 233.484 55.1013 231.253 52.9291 231.417C50.1001 231.629 47.4354 234.778 45.3509 236.485C42.3079 238.976 44.7725 240.723 45.6515 243.707C46.6303 247.014 45.6119 250.446 42.8854 252.405C39.9409 254.507 36.4058 254.442 32.9324 254.526L32.9286 254.475Z" fill="#AFAFAF"/>
<path d="M276.182 309.244C278.961 312.206 280.921 316.394 282.783 319.979C285.133 324.598 286.408 330.08 283.757 334.815C282.861 336.352 281.332 338.238 279.366 338.145C277.451 338.048 276.31 336.169 275.477 334.65C274.64 333.08 271.915 324.697 269.045 326.04C266.075 327.389 269.046 335.984 269.347 338.176C269.985 342.684 267.704 345.665 266.713 349.853C265.862 353.549 267.103 357.965 265.523 361.456C264.18 364.398 260.695 364.079 258.286 362.567C256.493 361.445 255.328 359.592 253.632 358.412C252.529 357.649 251.165 357.133 250.011 356.373C247.835 354.921 245.07 352.772 245.445 349.796C245.957 345.997 250.649 343.587 252.319 340.268C254.031 336.843 253.43 332.79 254.051 329.085C254.788 324.583 255.667 319.639 252.143 315.941C248.034 311.596 242.5 313.987 237.661 315.186C232.347 316.494 228.301 314.23 223.489 312.248C220.255 310.92 216.519 311.28 213.498 309.429C211.436 308.122 209.633 306.237 208.157 304.304C207.419 303.338 205.529 301.001 206.468 299.69C207.383 298.406 210.394 299.165 211.629 299.334C214.405 299.702 217.189 300.171 219.965 300.538C224.774 301.198 229.417 302.658 234.207 303.395C239.433 304.178 242.793 301.657 247.19 299.37C252.221 296.733 257.356 298.947 262.212 301.155C266.907 303.273 272.518 305.377 276.104 309.224L276.182 309.244Z" fill="#AFAFAF"/>
<rect x="218.012" y="249" width="35.9763" height="36" rx="17.9882" fill="#333333"/>
<path d="M232.04 265.994C232.634 265.994 233.214 265.818 233.707 265.488C234.201 265.158 234.585 264.69 234.812 264.142C235.039 263.593 235.099 262.99 234.983 262.408C234.867 261.826 234.581 261.292 234.162 260.872C233.742 260.453 233.208 260.167 232.626 260.051C232.044 259.936 231.441 259.995 230.892 260.222C230.344 260.449 229.876 260.834 229.546 261.327C229.216 261.82 229.04 262.4 229.04 262.994C229.041 263.789 229.358 264.552 229.92 265.114C230.483 265.676 231.245 265.993 232.04 265.994ZM232.04 261.994C232.238 261.994 232.432 262.052 232.596 262.162C232.761 262.272 232.889 262.428 232.964 262.611C233.04 262.794 233.06 262.995 233.021 263.189C232.983 263.383 232.887 263.561 232.748 263.701C232.608 263.841 232.43 263.936 232.236 263.974C232.042 264.013 231.841 263.993 231.658 263.918C231.475 263.842 231.319 263.714 231.209 263.549C231.099 263.385 231.04 263.191 231.04 262.994C231.041 262.728 231.146 262.474 231.334 262.287C231.521 262.099 231.775 261.994 232.04 261.994ZM240.525 268.478C239.932 268.478 239.352 268.654 238.858 268.984C238.365 269.313 237.98 269.782 237.753 270.33C237.526 270.878 237.467 271.481 237.583 272.063C237.698 272.645 237.984 273.18 238.404 273.599C238.823 274.019 239.358 274.305 239.94 274.42C240.522 274.536 241.125 274.477 241.673 274.25C242.221 274.023 242.69 273.638 243.019 273.145C243.349 272.651 243.525 272.071 243.525 271.478C243.524 270.683 243.208 269.92 242.645 269.358C242.083 268.795 241.32 268.479 240.525 268.478ZM240.525 272.478C240.327 272.478 240.134 272.419 239.969 272.309C239.805 272.2 239.677 272.043 239.601 271.861C239.525 271.678 239.506 271.477 239.544 271.283C239.583 271.089 239.678 270.911 239.818 270.771C239.958 270.631 240.136 270.536 240.33 270.497C240.524 270.459 240.725 270.478 240.908 270.554C241.09 270.63 241.246 270.758 241.356 270.922C241.466 271.087 241.525 271.28 241.525 271.478C241.525 271.743 241.419 271.997 241.232 272.185C241.044 272.372 240.79 272.478 240.525 272.478ZM243.99 259.529C243.897 259.436 243.787 259.362 243.665 259.312C243.544 259.262 243.414 259.236 243.283 259.236C243.151 259.236 243.021 259.262 242.9 259.312C242.779 259.362 242.668 259.436 242.576 259.529L228.576 273.529C228.482 273.621 228.407 273.732 228.356 273.853C228.305 273.975 228.279 274.105 228.278 274.237C228.278 274.369 228.304 274.5 228.354 274.621C228.404 274.743 228.478 274.854 228.571 274.947C228.664 275.041 228.775 275.114 228.897 275.165C229.019 275.215 229.15 275.241 229.281 275.24C229.413 275.24 229.544 275.213 229.665 275.162C229.787 275.111 229.897 275.037 229.99 274.943L243.99 260.943C244.083 260.85 244.156 260.74 244.206 260.618C244.257 260.497 244.283 260.367 244.283 260.236C244.283 260.105 244.257 259.974 244.206 259.853C244.156 259.732 244.083 259.622 243.99 259.529Z" fill="#D1F005"/>
</svg>
