<svg width="17" height="17" viewBox="0 0 17 17" fill="none" xmlns="http://www.w3.org/2000/svg">
<path fill-rule="evenodd" clip-rule="evenodd" d="M9.7171 0.5C10.3138 0.5 10.794 0.980214 10.794 1.57687V3.23469C10.794 3.83134 10.3138 4.31156 9.7171 4.31156H9.61367V5.46H13.8227C14.9276 5.46 15.8534 6.3281 15.8534 7.43531V14.5247C15.8534 15.6319 14.9276 16.5 13.8227 16.5H2.84398C1.73908 16.5 0.813354 15.6319 0.813354 14.5247V7.43531C0.813354 6.3281 1.73908 5.46 2.84398 5.46H7.00898V4.29813C6.4135 4.29675 5.93476 3.81721 5.93476 3.22141V1.57687C5.93476 0.980238 6.41484 0.500039 7.01148 0.5H9.7171ZM2.84398 6.42C2.23613 6.42 1.77335 6.89085 1.77335 7.43531V14.5247C1.77335 15.0692 2.23613 15.54 2.84398 15.54H13.8227C14.4306 15.54 14.8934 15.0692 14.8934 14.5247V7.43531C14.8934 6.89085 14.4306 6.42 13.8227 6.42H9.61367V9.53187H11.4785V8.30359C11.4785 7.70693 11.9587 7.22672 12.5554 7.22672H12.993V7.22703C13.5835 7.23408 14.0566 7.71136 14.0566 8.30359V13.7238C14.0566 14.3204 13.5764 14.8006 12.9798 14.8006H12.5421C11.9454 14.8006 11.4652 14.3204 11.4652 13.7238V12.1366H9.60039V13.7238C9.60039 14.3204 9.12018 14.8006 8.52351 14.8006H8.08585C7.48919 14.8006 7.00898 14.3204 7.00898 13.7238V12.1366H5.14414V13.7238C5.14414 14.3204 4.66389 14.8006 4.06726 14.8006H3.6296C3.03294 14.8006 2.55273 14.3204 2.55273 13.7238V8.30359C2.55273 7.70693 3.03294 7.22672 3.6296 7.22672H4.06726C4.66389 7.22674 5.14414 7.70692 5.14414 8.30359V9.53187H7.00898V6.42H2.84398ZM7.01148 1.46C6.94505 1.46004 6.89476 1.51042 6.89476 1.57687V3.22141C6.89476 3.28786 6.94505 3.33824 7.01148 3.33828H7.96898V10.4919H4.18414V8.30359C4.18414 8.23715 4.13373 8.18674 4.06726 8.18672H3.6296C3.56314 8.18672 3.51273 8.23712 3.51273 8.30359V13.7238C3.51273 13.7902 3.56314 13.8406 3.6296 13.8406H4.06726C4.13373 13.8406 4.18414 13.7902 4.18414 13.7238V11.1766H7.96898V13.7238C7.96898 13.7902 8.01939 13.8406 8.08585 13.8406H8.52351C8.58998 13.8406 8.64039 13.7902 8.64039 13.7238V11.1766H12.4252V13.7238C12.4252 13.7902 12.4756 13.8406 12.5421 13.8406H12.9798C13.0462 13.8406 13.0966 13.7902 13.0966 13.7238V8.30359C13.0966 8.24541 13.058 8.19959 13.0038 8.18906L12.9798 8.18672H12.5554C12.4889 8.18672 12.4385 8.23712 12.4385 8.30359V10.4919H8.65367V6.42H8.65335V5.46H8.65367V3.35156H9.7171C9.78356 3.35156 9.83397 3.30115 9.83398 3.23469V1.57687C9.83398 1.5104 9.78357 1.46 9.7171 1.46H7.01148Z" fill="#E2E2E2"/>
</svg>
