<svg width="40" height="40" viewBox="0 0 40 40" fill="none" xmlns="http://www.w3.org/2000/svg">
<rect width="40" height="40" rx="20" fill="#E2E2E2"/>
<path d="M20 13C25 13 29.27 16.11 31 20.5C29.27 24.89 25 28 20 28C15 28 10.73 24.89 9 20.5C10.73 16.11 15 13 20 13ZM20 15.5C17.24 15.5 15 17.74 15 20.5C15 23.26 17.24 25.5 20 25.5C22.76 25.5 25 23.26 25 20.5C25 17.74 22.76 15.5 20 15.5ZM20 17.5C21.66 17.5 23 18.84 23 20.5C23 22.16 21.66 23.5 20 23.5C18.34 23.5 17 22.16 17 20.5C17 18.84 18.34 17.5 20 17.5Z" fill="#333333"/>
</svg>
