<svg width="36" height="36" viewBox="0 0 36 36" fill="none" xmlns="http://www.w3.org/2000/svg">
<g clip-path="url(#clip0_668_582)">
<path d="M12.374 14.0713C12.4393 14.0716 12.501 14.1275 12.501 14.2061V24.2998C12.5008 24.3782 12.4392 24.4343 12.374 24.4346H9.67285C9.60746 24.4346 9.54607 24.3784 9.5459 24.2998V14.2061C9.5459 14.1272 9.60736 14.0713 9.67285 14.0713H12.374Z" fill="#AFAFAF"/>
<path d="M18.4883 8.56543C18.8167 8.56554 19.1163 8.71819 19.3135 8.99023C19.4864 9.22891 19.5522 9.51986 19.5 9.80664L19.4697 9.92871L18.5654 12.9248C18.5091 13.1096 18.4965 13.3054 18.5283 13.4961C18.5603 13.6874 18.6358 13.8682 18.75 14.0244C18.8629 14.1808 19.0106 14.3085 19.1816 14.3965C19.3527 14.4843 19.5423 14.5298 19.7344 14.5293H25.877C26.1904 14.5294 26.4538 14.7915 26.4541 15.123C26.4541 15.4548 26.1906 15.7176 25.877 15.7178H22.7266C22.5202 15.7178 22.3232 15.8012 22.1787 15.9482C22.0344 16.0954 21.9531 16.294 21.9531 16.5C21.9531 16.706 22.0344 16.9046 22.1787 17.0518C22.3232 17.1988 22.5202 17.2822 22.7266 17.2822H24.9766C25.2903 17.2822 25.5547 17.5451 25.5547 17.877C25.5544 18.2086 25.2901 18.4707 24.9766 18.4707H22.2764C22.0699 18.4708 21.872 18.5539 21.7275 18.7012C21.5834 18.8482 21.503 19.0471 21.5029 19.2529C21.503 19.4587 21.5835 19.6576 21.7275 19.8047C21.872 19.9519 22.07 20.0361 22.2764 20.0361H24.0771C24.3907 20.0364 24.6543 20.2982 24.6543 20.6299C24.654 20.9613 24.3905 21.2224 24.0771 21.2227H21.8262C21.6199 21.2228 21.4227 21.307 21.2783 21.4541C21.1341 21.6011 21.0538 21.8 21.0537 22.0059C21.0538 22.2116 21.1342 22.4106 21.2783 22.5576C21.4227 22.7046 21.62 22.789 21.8262 22.7891H23.1758C23.4894 22.7891 23.7547 23.0502 23.7549 23.3818C23.7549 23.7137 23.4895 23.9756 23.1758 23.9756H18.3369C17.3587 23.9751 16.3949 23.7481 15.5186 23.3125L15.1494 23.1133L14.0469 22.4707V15.9561L14.1055 15.9082L14.3555 15.6973C15.5869 14.6224 16.5378 13.2514 17.1211 11.707L18.2744 8.65234C18.2845 8.62597 18.3017 8.60301 18.3232 8.58789C18.334 8.58038 18.3463 8.5751 18.3584 8.57129L18.3945 8.56543H18.4883Z" fill="#AFAFAF"/>
<path d="M23.9678 22.9453C23.9854 22.9784 24.0001 23.0135 24.0137 23.0488C23.9894 22.9857 23.9596 22.9256 23.9229 22.8701L23.9678 22.9453Z" fill="#AFAFAF"/>
<path d="M23.6055 22.5762C23.6564 22.6045 23.7046 22.6374 23.749 22.6748L23.8125 22.7334C23.7718 22.692 23.7266 22.655 23.6787 22.6221L23.6055 22.5762Z" fill="#AFAFAF"/>
<path d="M24.2578 21.5273L24.168 21.543C24.2156 21.538 24.2615 21.5259 24.3066 21.5137C24.2904 21.5181 24.2744 21.5238 24.2578 21.5273Z" fill="#AFAFAF"/>
<path d="M25.8711 20.7783C25.8635 20.8738 25.8476 20.9669 25.8262 21.0576C25.8367 21.0132 25.8463 20.9684 25.8535 20.9229L25.8711 20.7783Z" fill="#AFAFAF"/>
<path d="M24.8232 20.1162L24.8672 20.1924C24.8534 20.1666 24.8383 20.1414 24.8223 20.1172L24.7705 20.0459C24.7889 20.0686 24.807 20.0917 24.8232 20.1162Z" fill="#AFAFAF"/>
<path d="M25.1768 18.7695C25.1706 18.771 25.1644 18.7741 25.1582 18.7754L25.0693 18.7891C25.106 18.7852 25.1416 18.7778 25.1768 18.7695Z" fill="#AFAFAF"/>
<path d="M25.7236 17.3633C25.7884 17.4608 25.8343 17.5721 25.8584 17.6914L25.8721 17.7832C25.8597 17.6598 25.8231 17.5436 25.7676 17.4395L25.7236 17.3633Z" fill="#AFAFAF"/>
<path d="M26.0586 16.0225L25.9688 16.0361C26.016 16.0312 26.0618 16.0202 26.1064 16.0078C26.0904 16.0123 26.075 16.019 26.0586 16.0225Z" fill="#AFAFAF"/>
<path d="M19.2383 14.0537L19.3281 14.1094C19.2526 14.0706 19.1845 14.0194 19.123 13.9609C19.1591 13.9949 19.1973 14.0261 19.2383 14.0537Z" fill="#AFAFAF"/>
<path d="M12.5107 12.8359C12.5996 12.8451 12.6866 12.8627 12.7695 12.8887C12.7291 12.876 12.6874 12.8662 12.6455 12.8574L12.5107 12.8359Z" fill="#AFAFAF"/>
<path d="M18.0273 8.43262C18.0314 8.42693 18.0358 8.4215 18.04 8.41602L18.0859 8.36523C18.0644 8.38575 18.0446 8.40829 18.0273 8.43262Z" fill="#AFAFAF"/>
<path d="M17.999 7.38477C17.9328 7.4055 17.8682 7.43196 17.8057 7.46289L17.6289 7.56738C17.741 7.4889 17.8638 7.42778 17.9922 7.38672L17.999 7.38477Z" fill="#AFAFAF"/>
<path d="M26.1445 14.2471L26.2266 14.2773C26.2392 14.2828 26.2514 14.2889 26.2637 14.2949C26.2254 14.2761 26.1856 14.2601 26.1445 14.2471Z" fill="#AFAFAF"/>
<path fill-rule="evenodd" clip-rule="evenodd" d="M17.9307 0.0703125C27.8554 0.0703125 35.9307 8.14541 35.9307 18.0713C35.9304 27.9958 27.8553 36.0713 17.9307 36.0713C8.00608 36.0713 -0.0690711 27.9958 -0.0693359 18.0713C-0.0693359 8.14654 8.00591 0.0703125 17.9307 0.0703125ZM18.3916 7C18.0532 7.00154 17.7235 7.10712 17.4453 7.30176C17.2023 7.47195 17.0082 7.70318 16.8818 7.97168L16.8311 8.09082L15.6768 11.1484C15.2963 12.1543 14.7279 13.0709 14.0098 13.8555C13.8508 13.0883 13.182 12.5061 12.374 12.5059H9.67285C8.74537 12.5059 8 13.2727 8 14.2061V24.2998C8.00018 25.233 8.74548 26 9.67285 26H12.374C13.3011 25.9997 14.0467 25.2328 14.0469 24.2998V24.2754L14.3789 24.4707L14.6074 24.5977C15.7553 25.216 17.0354 25.5404 18.3369 25.541H23.1758C24.3513 25.541 25.2988 24.568 25.2988 23.3818L25.2939 23.2227C25.276 22.975 25.2142 22.733 25.1152 22.5068C25.7615 22.1363 26.2 21.4353 26.2002 20.6299L26.1934 20.4697C26.1754 20.2224 26.1144 19.9808 26.0156 19.7549C26.6621 19.3844 27.0994 18.6825 27.0996 17.877L27.0938 17.7168C27.0758 17.4694 27.0148 17.2279 26.916 17.002C27.5624 16.6313 28 15.9287 28 15.123C27.9997 13.9372 27.0522 12.964 25.877 12.9639H20.1699L20.9473 10.3867L20.9883 10.2354C21.1697 9.48089 21.0167 8.69557 20.5586 8.06348C20.0697 7.38943 19.314 7.00011 18.4883 7H18.3916Z" fill="#AFAFAF"/>
</g>
<defs>
<clipPath id="clip0_668_582">
<rect width="36" height="36" fill="white"/>
</clipPath>
</defs>
</svg>
