<svg width="36" height="36" viewBox="0 0 36 36" fill="none" xmlns="http://www.w3.org/2000/svg">
<g clip-path="url(#clip0_668_744)">
<path d="M18.7822 11.5918C21.1069 11.5918 22.2305 12.8267 22.2305 14.7695C22.2305 16.7236 21.0957 17.9707 18.7822 17.9707H16.1992V11.5918H18.7822Z" fill="#AFAFAF"/>
<path fill-rule="evenodd" clip-rule="evenodd" d="M17.9307 0.0703125C27.8554 0.0703125 35.9307 8.14541 35.9307 18.0713C35.9304 27.9958 27.8553 36.0713 17.9307 36.0713C8.00608 36.0713 -0.0690711 27.9958 -0.0693359 18.0713C-0.0693359 8.14654 8.00591 0.0703125 17.9307 0.0703125ZM15.1777 9.79492C14.6255 9.79492 14.1777 10.2426 14.1777 10.7949V17.9707H12.8076C12.3238 17.9707 11.9316 18.3629 11.9316 18.8467C11.9319 19.3302 12.324 19.7227 12.8076 19.7227H14.1777V21.8896H12.6953C12.2735 21.8896 11.9316 22.2316 11.9316 22.6533C11.9316 23.0751 12.2735 23.417 12.6953 23.417H14.1777V25C14.1777 25.5523 14.6255 26 15.1777 26H15.1992C15.7515 26 16.1992 25.5523 16.1992 25V23.417H20.0967C20.5182 23.4167 20.8604 23.0749 20.8604 22.6533C20.8604 22.2316 20.5175 21.8896 20.0957 21.8896H16.1992V19.7227H19.2881C22.3313 19.7224 24.3076 17.6219 24.3076 14.7695C24.3076 11.9284 22.3537 9.79515 19.3105 9.79492H15.1777Z" fill="#AFAFAF"/>
</g>
<defs>
<clipPath id="clip0_668_744">
<rect width="36" height="36" fill="white"/>
</clipPath>
</defs>
</svg>
