<svg width="36" height="36" viewBox="0 0 36 36" fill="none" xmlns="http://www.w3.org/2000/svg">
<g clip-path="url(#clip0_668_590)">
<path d="M20.6295 20.6414C19.6722 21.5988 18.402 22.1253 17.0475 22.1253C15.693 22.1253 14.4229 21.5988 13.4655 20.6414C12.5082 19.6852 11.9828 18.4139 11.9828 17.0606C11.9828 15.7072 12.5093 14.4359 13.4655 13.4786C14.4229 12.5212 15.693 11.9947 17.0475 11.9947C18.402 11.9947 19.6722 12.5212 20.6295 13.4786C21.5869 14.4348 22.1123 15.7072 22.1123 17.0606C22.1123 18.4139 21.5869 19.6852 20.6295 20.6414ZM35.9307 18.0708C35.9307 27.9956 27.8554 36.0708 17.9307 36.0708C8.00591 36.0708 -0.0693359 27.9956 -0.0693359 18.0708C-0.0693359 8.14605 8.00591 0.0708008 17.9307 0.0708008C27.8554 0.0708008 35.9307 8.14493 35.9307 18.0708ZM25.9395 24.3348L22.9628 21.3502C23.874 20.1053 24.3642 18.6022 24.3623 17.0594C24.3623 15.1053 23.6018 13.2682 22.2203 11.8867C20.8388 10.5052 19.0028 9.74355 17.0475 9.74355C15.0923 9.74355 13.2563 10.5052 11.8748 11.8867C10.4933 13.2682 9.73279 15.1053 9.73279 17.0594C9.73279 19.0135 10.4944 20.8507 11.8748 22.2311C12.5524 22.9126 13.3585 23.453 14.2465 23.8209C15.1344 24.1887 16.0864 24.3768 17.0475 24.3742C18.6069 24.3756 20.1253 23.8746 21.3777 22.9454L24.3465 25.9222C24.4508 26.0272 24.5749 26.1106 24.7117 26.1673C24.8484 26.2241 24.995 26.2532 25.143 26.2529C25.3651 26.2527 25.5822 26.1867 25.7668 26.0632C25.9515 25.9398 26.0955 25.7645 26.1807 25.5594C26.2658 25.3542 26.2884 25.1285 26.2455 24.9106C26.2026 24.6927 26.0961 24.4923 25.9395 24.3348Z" fill="#AFAFAF"/>
</g>
<defs>
<clipPath id="clip0_668_590">
<rect width="36" height="36" fill="white"/>
</clipPath>
</defs>
</svg>
