<svg width="36" height="36" viewBox="0 0 36 36" fill="none" xmlns="http://www.w3.org/2000/svg">
<g clip-path="url(#clip0_668_1845)">
<path d="M17.9996 12.9688C16.1523 12.9688 15.1309 14.7697 15.1309 18.0002C15.1309 21.2307 16.1521 23.0314 17.9996 23.0314C19.8471 23.0314 20.8679 21.2458 20.8679 18.0152C20.8679 14.7846 19.8316 12.9688 17.9996 12.9688Z" fill="#AFAFAF"/>
<path d="M18 0.421875C8.29188 0.421875 0.421875 8.29188 0.421875 18C0.421875 27.7081 8.29188 35.5781 18 35.5781C27.7081 35.5781 35.5781 27.7081 35.5781 18C35.5781 8.29188 27.7081 0.421875 18 0.421875ZM18 27.2088C13.3393 27.2088 10.3247 23.6011 10.3247 18C10.3247 12.3838 13.324 8.79117 17.9999 8.79117C22.6759 8.79117 25.6753 12.3839 25.6753 18C25.6753 23.6011 22.6604 27.2088 18 27.2088Z" fill="#AFAFAF"/>
</g>
<defs>
<clipPath id="clip0_668_1845">
<rect width="36" height="36" fill="white"/>
</clipPath>
</defs>
</svg>
